<svg enable-background="new 0 0 593.7 503" height="503" viewBox="0 0 593.7 503" width="594" xmlns="http://www.w3.org/2000/svg"><path d="m370.7 481.6c.1.7.1 1.5-.2 2.2-2.8 2.3-7 3.3-7.5-1.5-.5 0-.9-.2-1.3-.6.4-1.1-.5-1.4 0-2.6 1.2 0 1.7 1 2.4.5 1.1-.4.5-1.4.5-2.2 1.9 0 3 .7 3 2.6-.4.2-.9.2-1.4 0-.8 3.5 3.2 1.5 4.5 1.6zm5.7-14.1c-1.3.4-3.3-.3-4.2.9.3 2.6 4.2 5 5 1.8.3-1.1-.6-1.5-.8-2.7zm23.2 30.8c0 .7-.6.5-.4 1.3 1.2.2 1.9.9 3.1 1.1.3-.6 1-.7 1.3-1.3-.7-.9-2.3-1.1-4-1.1zm5-7.4c.3 2.6.2 5.6 2.6 6.6.7-.9.4-3 .6-4.4-1.8-.1-2.5-1.2-3.2-2.2zm-19.9 8c-.7 1.2-1 4.1 1.2 4.1.6-.7-.3-2.1.2-3.6-.8.1-.7-.5-1.4-.5zm-7.9-17.8c1.2.3 2.4.4 3.5.3.6-1.8-3.6-2.6-3.5-.3zm11.8-1.4c2.3.3 4.6-.9 5.8-2.9-.9-.6-2.5-.6-3.7-1 .2 2.4-1.7 2.1-2.1 3.9zm55.1 8.6c-.7.6-2.5.2-2.5 1.5.6 1.3 1.9 1.9 2.2 3.5.5-.5 2.7.9 3.8-.2-.1-2.8-2.5-3.1-3.5-4.8zm-5.2 5.2c-2.2 3.5 5.3 4.3 4.1.4-1.9.3-2.3-.8-4.1-.4zm-77.5-27.6c-.2 1.2-.8 2.4-1.6 3.3.5.5 1.3.7 2 .5.8-1.8-.1-2.6-.4-3.8zm70.8 28c-1.4 1.1-.2 3 0 4.7 4.2 1.3 3.1-4.7 0-4.7zm-23.4-1.3c.7 3.4 4.1 2.2 4.9-.5-1.6-1.5-2.8 1-4.9.5zm20.6 5.7c-.3 1.3-.9 2.2-1.2 3.6.9 0 1.9.1 2.4-.3.6-1.1.2-3.3-1.2-3.3zm-17.3-13.2c-.4 2.2-4.1.6-4.6 2.7 2.5 1.8 6.8-.4 4.6-2.7zm12.7 8c-1.5.3-2.5 2.5-2.4 3.5 1.6-.2 5.4-2.2 2.4-3.5zm-1.7-13.1c-3.5 0-6.8-1.3-8.8 1.6 1.4.6 2.6 1.3 4 1.8.3-.8.4-1.9 1.5-1.9 1 1 1.6 2.2 3.5 2.3.2-1.2.6-2.8-.2-3.8zm-85.2-13.4c-.9 1.5-.3 3.6 1.9 2.9.6-1.7-.3-2.5-1.9-2.9zm-6.4-.6c-.9 1.5-2.4 1.7-3.1 3.7 1.7 1 3.7-.9 4.9-2.2-.5-.6-.7-1.3-1.8-1.5zm12.3-6.4c-.8.4-1.6.6-2.5.6s-1.8.7-1.9 1.6c.8.3 1.6.5 2.5.7.2-1.6 1.3-1.7 1.9-2.9zm-10.2.7c-.2-.4-.8-.5-.7-1.1.3-1.4.9-2.2 2-2 1.2.8 2.7 2.5 3.8.6-1-.6-2.1-1.1-1.6-2.5 1.7-1.4 4 .4 5-2.3-1.1.1-2.2.3-3.3.3-.6 0-1.3 0-1.9.1 0 0 0 .1-.1.1s-.1-.1-.1-.1c-.9 0-1.8.1-2.7.1-.5 1-.8 2.1-.9 3.2-1.2-.4-1.4-1.4-2-2.1-.6-.2-.7.9-1.3.7-1.1-.2-1.4-.9-1.9-1.6-1.1 0-2.3 0-3.4 0-.3 1.2-.9 2.2.2 3.1 1 .3 1.2-1.1 2.3-.4 1 .4.5 1.6 1.5 2 1.5-.5 4.2.4 2.6 2.9 1.8.5.7 1.5.8 2.6 2.5.3 5.7 0 5.7-3.4-1.6-1.3-2.3.2-4-.2zm13 4.4c-1-.4-1.5.1-2.4-.1-1.3 2.3.8 2.6.7 4.2-.5 1.2-1.6 1.3-2.1 2.6 2.6 2.4 2.6-3.2 5.6-1.3 1.1-2.7-3.3-3.1-1.8-5.4zm8.9 1.3c-1.1-1.7-2.4-1.5-4.7-1.8l-.4 1.6c.8.7 1.7 1.1 2.7 1.3 1 .3 2-.2 2.4-1.1zm-3.4-10.7c-1-.6-2.1-2.9-.8-3.8l-2.4.2c-.3.1-.6.1-.8.2.4.7.3 1.4-.7 2.4-.7.3-1.8-.3-2.8-.5-.1 1.1-1 .9-1.1 2 2.5 1 4.4 1.2 6.1 2.8 1.2-.4 1.8-2 2.5-3.3zm-29.5 9.3c-.3.5-.8.5-.9 1.1.9.9.9 2.3.1 3.2 1.4 2.7 3.7.7 4.6-1.4-1.3-.9-1.9-2.3-3.8-2.9zm32.5 5c1.4.4 1.5 1.6 2.8 2.1.9-1-.4-2.1 0-3.4-1.1-.4-2.3.2-2.8 1.3zm-.7 21.4c.3.7.4 1.4 1.7 1.5.7-1.1.8-2.5.3-3.6-.7.8-1.7.8-2 2.1zm1.2-39.9c-1 .1-2 .2-3.1.3.4.2.6.6 1.3.6.6-.3 1.2-.6 1.8-.9zm2.4.7c.8-.2 1.2-1 2.1-1.1-1.1.1-2.2.2-3.3.3.5.1.9.4 1.2.8zm0 23.9c.2.8.3 1.6.3 2.3-.5.9-1.6.8-1.9 2.1 2.7 1.2 3.4-.8 5-1.4-.6-1.4-.6-3.1-1.8-4.1-.4.5-1.2.4-1.6 1.1zm-37.5-9.2c-1.5-.6-2.9-.8-3.4.9 0 1.8 2.2 1.4 3.5 1.2.3-.9-.5-1.2-.1-2.1zm128.4 9.3c-1.9.2-2.9 1.1-2.5 3.3 2.9-.4 3.7 1.7 4 4.4 1 .7 2.3 1.1 3.5 1.1-1-4.2-5.2-4.5-5-8.8zm-126.6-22.2c-.8-.1-1.6-.1-2.3-.2-1 0-2 0-2.9-.1 0 .2.1.4.2.6 1.5.4 3.2.4 2.8 2.2-.6 1.4-2.2.3-2.6 2 1.7.6 1.4 1.9 3.5 1.8 0-1.8.1-3.6-.1-5.3.5-.2 1-.5 1.4-1zm250.3-51.1c.9.9 1.6 1.9 2 3.1.8-.2 1.3-.8 1.5-1.6-1.2-1.5-2.3-1.1-3.5-1.5zm.1 4.3c-.9.8-1.1 2.1-.4 3.1 1.1-1 2.2-.5 3.3-1.3-.3-1.3-2-.8-2.9-1.8zm3.9-8.2c.1.7-.3 1.3 0 2 .8.2 1.5.5 2.2 1 .5.9-.2 1.9.8 2.8 2.5-1.8 1.2-3.5 1.6-5.2-1.6-.3-3.1-1.1-4.6-.6zm-14.6 32.8c.7 1.6-.1 3 1.1 4.7 1.9-.9 1.6-3.7 1.2-5.4-.7.1-1.4-.2-2.3.7zm-72.7 24.3c-.7.1-1.4 0-2.1 0 .4.9 0 1.9.4 3.3.7-.4.9.3 1.6-.2-.9-1.5.9-1.5.1-3.1zm81.4-43.3c-.7.3-2.8.9-2.4 2.1 1.1 0 2.1-.2 3.1-.5-.6-.5-.1-1-.7-1.6zm-111.6 81c-3.8.4-2.5-5-6.3-4.4-1 2 2.1 2.4 1 4.6 1.1.6 1.8 1.6 2.8 2.3s2.3 1.1 4.6.3c-.4-1.1-1.1-2.1-2.1-2.8zm132.1-98.6c-.9 1.1-1.2 5.6-3.6 3.1.4-.3.7-.7.7-1.2-1.6-.9-2.8-.3-3.9 1.4.7.3 1.9.4 1.6 1.5 0 .9-1.2.8-1.8 1.8.7 1.1 1.5.4 2.2 1.3.5-.1.9-.4 1.2-.8 4.5 2 5.9-2.2 5.4-5.8-.5-.6-1.1-1-1.8-1.3zm-37.6 47.9c.2.5-.1.9.3 1.5 1.2-.3 2.4.4 2.7 1.6 0 .1 0 .2.1.3 1.6.2 2.3-.5 2.5-1.5.1-1.1-.1-2.3-.7-3.3-1.6.3-3.2 0-4.9 1.4zm16.8-16.5 2.1-1.7c-1.2-1.1-.6-2.1-1.3-3.2.1 1.6-2.5 3-.8 4.9zm23-45.3c-.8-.8-1.6-.2-2.7-.6-.2 1.4-1.9 2.8-1.4 4.1 2.4 1.1 6.4-1.2 4.1-3.5zm-2.9 25.9c.5-.4 1-.4 1.6-1.2-.3-.7-.7-1.4-1.2-1.9-1 .7-1.2 2.1-.4 3.1zm-10.7 3.2 1.1 1.2c1.7-.6 4.3-2.6 3-4.4-2.1.1-2.6 1.4-4.1 3.2zm-6.2 20c.7 1.6 2.8 2.2 3.6-.1-1.1-1.3-2.3-1-3.6.1zm7.7-14.1c-1.7-2.3-4.6 1.2-5.6-1.3-1 .7-.8 1.4-1.5 2 1.2 2.4 2.7.7 4 1.6.7 1.1.2 2.1 1 3.2 3.5-.9-1.3-3.9 2.1-5.5zm-15.5 9.4c-1.1-.4-1.5-1.9-2.9-.4-1.5-2.7-3.8-.5-4.1 1.2-.9.9-1.8-.3-2.7.5-1.3.8-.1 1.6-.9 2.4-1.7.8-2.2-1-3.6-1.8-1.6 1.4-.1 3-.6 4.5 1.7.7 3.3 1.6 5 2.5-1 2.1-2.1 1.1-3.7 2.5-1.4-1.3.6-2.3-.4-3.5-1.4-1.3-2.4.3-3.6 1.6-2.8 1-4.5 1.2-5.6.9.1.2.1.3.2.5-1.5 1.5-2.7 1-3.9.8.1 1.1-.8 1.6-2 1.8-1-1.5-2.2-1.5-3.4-2.2 0-1.1.7-2-.2-3.4-1.8-.2-2.2.9-2.4 2.1-.2 1.3-.3 2.7-1.2 3.4-.5-1.6.5-2.7-.4-4.5-.8-.3-1.7-.2-2.4.4-.4-.6-.8-1.1-1.4-1.5-1.2.6-2.4 1.5-3.4 1.5-.9.8-.4 2.1-1 3-2.3 1.9-3.4-.5-5.1-.6-1.1.4-.1 1.7-.2 2.5-.8.2-1 .7-1.5 1 .4 1.2 1.1 1.4 2 1.2-.2 1.2-.8 2.3-.6 3.6 2.2 2 3.9 4.9 6.4 1.9 1-1.2.5-3.3.1-5.3-2.2-.2-2.4 2-3.1 3.1-3.2-2.4.2-7.6 2.9-3.6.8-.8.5-2 .5-3 .8-.3 1.4.2 2.3-.6.6 2.3 3 3.7 5.3 3.1h.1c.3 1.4-.5 2.4-.4 3.7-1.2.6-2-.3-3.1-.2-2 2.9 3.5 6.6 2.6 9.8-2.7 1.2-4.8-.3-4.9-3.2-1.3 0-2.3 1.7-3 2.6-1 .1-2 0-3.1-.2-.9.4-.6 1.3-.2 2.2-1.2 1.3-2.9 1.7-4.4 2.1s-3 .8-3.8 2.4c.7 1.4 3.2.1 4.2-.7.5 1.4 1.5 1.5 2.3 2 1.4-.9 3.3-2.6 4.6-1.4-1.6.6-2.2 1.5-2.2 2.7.7 1.3 2.4 0 3.2 1 .3.9-.3 1.4-.7 2.1-2.6-.4-5.5.2-7.9-.6-.7-1.2-1.7-2.3-3-3-1.4.4-2.9.4-4.2-.2-.2-1.5-.3-4.7-2.4-5.9-2.5-.1-6.9 3.1-9.3 1.6.4-1.8 1.2-3.3 1.1-5.3.7-.3 1.7-.4 1.9-.9-.1-.8-.4-1.6-.8-2.4-1.7-1-2.8 1.2-4.1 2.2.5 1.6.3 2.6 1.3 3.4-.9.1-1.8.1-2.7 0 .4-2.9-2.6-3.7-4.2-5.2.4-1.5-.4-3-1.8-3.5-1.5 3.1 2.5 7.8-.6 10.5.8 1.4 1 3.2.4 4.8.9 1.2 1.5-.6 2.2-.9.3 1.3.2 3.4.6 4.2 1-1 2.1-1.8 3.3-2.6 1.5-.9 3.1-1.4 4.8-1.5-.7 2-.4 4.2.9 5.8-1.8 2.3-4.4-.1-6.1.6-2.2.8-2.4 4.2-1.3 7-.1.7-.5 1.2-1.1 1.5-.6.4-1.2.8-1.4 1.4.1 1.7 1.6 1.3 1.6 3-.7.4-1.4.7-2.2.8-1-1.5-2.5-2.1-3.9-2.8 0-1 .3-1.9.8-2.7.7.2 1.2.8 2.4.3 1.1-.7-.2-2.1-.7-2.7.5-1.5 2-2.1 3.4-2.6-.4-1.5-1.9-2.4-3.4-2-1.3.3-2.2 1.5-2.1 2.8-1.1.5-1.8-1-2.5 0-.7 2.4-.2 5.6-.5 8.3-1.8-.9-5.4-.6-5.1 2.1-2.5.3-3.1-2-6-1.2-.2-2-2.3-1.5-2.8-3.2.3-.6.8-1.1 1.3-1.6s.9-1 1.3-1.6c1.2-.1.5 2.4 1.3 2.9.3-.1.5 0 .6.2 3.1-1.3 7-3.1 5.8-6.4-1.4.2-1.7 1.2-2.7 1.6-1.3-.4-2.1-1.5-2.5-3.2-1.8 0-4.3-1.7-5.4.4-1.9-1.9-5.4-3.6-5.3 1-.8-.2-1.6-.1-2.4 0-.3-1-.7-1.8-1.6-2-1 .1-1 1.2-1.1 2.1-1 .3-1.5-.5-2.1.2 1 2.3 2.8 3.7 2.9 7.2-2.6 1.7-3.3-1.6-3.2-3.9-1.4-.2-1.9 1.6-2.9.8-1 0-.6-1.7-1.3-2.1 1-1.7 1.5-3.5 1.7-5.4 2.9 0 4.3-5.5 1.8-6.3-1.6-.4-3.6 1.5-2.7 4.4-.8.8-1.9 1.4-2.2 2.7.2 2 1.5 2.3.6 4.1-1.2.3-2.4.8-3.4 1.6s-2.2 1.3-3.4 1.6c-.3-1.5-2.2-3.3-3.6-1.8.3 1.5 1.3 2.2 3.1 2.1-.3 1.5-.1 3 .5 4.4-2.6 1.5-3.5 2.5-6.6.5-.2-1.5.4-2.2.8-3-1.6-.7-.3-3-3-2.7-1.1 1.2-1.3 3.3-1.9 5-1 0-.6-1.4-1.9-1.1-1.3.6-.2 2.2.8 2.2-1.2 1.4.4 5.6-2 5.8-2.5-1.2-2.2-8 .6-8.6-.1-1 .2-2.5-.3-3-1.2-.7-2.5.2-3.2.8-.3-.6 1.1-3.1-.2-3.9-2.9.6-2.4 4.9-6.5 4.2 1.3-2.6 1.1-5.5-1.9-5.9-1.6 2.1-5.5 1.3-7.4 3.1-.3 1.1.5 1.6-.2 2.2-3-.3-3.9 1.9-5.7 3.1-1.3.2-1.5-.6-2.4-.8.3-1.1 1.6-.8 1.8-2-.3-1 .2-2.7-.2-3.6-1.9-.1-2.5 1.4-3.5 2.4-1-.4-1.8-.9-2.5-1.7.1-1 .4-2.1.9-3-1.3-1.9-3.8-1.9-5.7-1-.6-1.1-.1-3.2-1.3-3.8-2.6-.2-9.4 5.3-3.3 5.9.5.6-1.1 1.4-.4 2.5 1.7.2 1.8-2.1 3.5-2-.3 1.8-.9 5.6-3.2 5.6-1.5-1.5-3.9-1.9-5.9-2.3-1.3-2.5.9-3.9 2-5.6-.2-1.3-1.6-.3-2.3-.4 0-1.8-.1-3.6-.4-5.4-1.2-.6-2.5-.9-3.8-.7.5-.7.8-1.5 1-2.3-1.5-1.7-1.3-4.6-3.8-5.6-1.1 1.9.6 3.7 1.9 4.6-.3 1.1-1 2-1.8 2.7-1.6-.5-2.8 0-4-.8.3 2.5-.1 5.6 2.5 5.9-.4.7-1.1.9-1.4 1.7-.7-.1-.7-.6-1.2-.8-.9.2-1.7.7-2.2 1.5-1 0-.1-1.3-.1-2-1.8-.8-2-2.7-4.4-3 0-1.9-1-4 .5-5.6-.3-1.3-2.7-1-3.5-.8-1 0 .1-1.3-.7-1.3-.9-.9-1.4 1-1.6.2-2.1-3.3 2.1-4.8 4.2-5.3.1-.6 0-1.2-.4-1.5-.2-.3-.4-.6-.5-1 8.3-.7 16.8-.1 25.4-1.6 3.6-.6 10.4-3.4 14-4.1 8.5-1.7 13.9-1.4 22.5-3.5 7.6-1.9 17.5-3.9 25.1-6.1 7.4-2.2 12.4-4.6 19.7-7.1 7.9-2.7 15.6-5.5 23.3-8.5 8.6-3.4 19.3-5.6 27.5-9.3 3.3-1.5 4.3-4.4 7.5-5.9.3-.2.7-.3 1.1-.5.3.2.5.5.8.7.1.9-1.8 1.5-1.8 2.3 1.3 1.4 2.3 1.3 3.2.7.9-.9 1.7-1.9 2.3-2.9-.9-.5-1.7-1-2.4-1.7 1.2-.5 2.5-1 3.7-1.5.4 1.2 1.2 2.1 2.4 2.5.5-1 1.8-2.1.9-3.3-.5 0-1 0-1.4 0 1.3-.5 2.4-1 3.2-1.4.2-.1.4-.2.7-.3 1.1 1.3 3 2.2 4.3 3.2 1.6-1.5-.6-3.3-2.6-4.1 1.6-.9 2.8-1.7 4-2.5 0 .3.3.7 0 1 .9 1.2 1.6.8 2.4 1.2.5-.5 1.1-1 1-1.5-.9-.5-1.9-.9-2.9-1.2 1.4-1 2.9-2 5-3.1 2.3-1.3 4.5-2.9 6.4-4.7.4 2 1.8 3.6 3.6 4.4.7-.1 1.9-.9 1.8-1.8-1-1.3-1.6-.1-2.4-.7-.7-1.1.4-2.2-1.5-3.2 1.8-1.7 3.7-3.1 5.7-4.5 2.9-1.8 11.6-3.1 14.3-5 5.2-3.6 7.6-7.5 12.1-11.1.5.6 2.5 3.1 1.3 5.3 0 0-.1 0-.1.1-.2.3-.5.6-.7.9-.7 1.4-.1 2.8.5 4.2-.1.5-.2 1-.3 1.4-.1.3-.1.5-.2.7 0 .1-.1.2-.1.2s-.1.1-.1.1c-.3.1-.6.3-.9.5 0 0-.1.1-.1.1-.1 0-.2-.1-.3-.1-1.1.9-1.9 2.1-2.3 3.4-.5-.8-1.1-1.4-1.9-1.9-2.2.8-5-.7-7 1.4 1.4 1.9 3.8 1 5.3.1.9.8 1.6 1.8 1.8 2.9-1.2 1.4-1.2 2.7-2.5 3.6 2.5.8 5.4 2.4 6.7 0 .5.7.4 1.4 1 2.1-.4.6-.9.5-1.3.8-.2 1-.1 2 .5 2.8-.4 1-1.3-.5-2-.7-1.5 1.4-3.4.8-4.8 3.1-1.8-.8-4.3-.8-5.1-2.8-1.4-.3-2.1 2.2-2.3 3-.4.9-1.2-.6-1.6.1-1.3.5.3 1.8-.6 1.6-4.1.6-3.6-4.2-3.1-6.3-.6-.3-1.2-.6-1.6-.3-1.4 1.2-.3 2.2-.5 3.4-2.3.7-1.6 2.6-1.6 4.2-.5.9-1.1.6-1.6 1.4-.4 2.4 2.8 2.4 4 1.6.8 1.3 2.1 2.5 2 3.9-1.1.5-2.1 1.1-2.9 2-.8.8-1.6 1.7-2.8 2.7-1-.6-.4-1.3-1.3-2 .6-.8 1.8-1.6 1.8-2.4-1.2-4.1-4.5.5-6.3-1.6-1.5-1.8 1.7-2.8.1-4.9-1.7.8-5.4 2.9-4.2 5.1.6.3 1.2.3 1.8.2 1.8 1.8-.8 2.5-.3 4.1.7.9 1.3-.2 1.9-.8 1.2 1.5 2.1.4 3.3 1.2 2.7 2.4-.9 4.8-.4 7.2 1.1 1.1 2.2.3 3.2-.4 1.3 2-1.1 2.7-2.5 3.4-.7.9-.4 1.9.8 2.8.5.4 1-.1 1.4-.2 1.3-1.5.2-2.9 2.2-3.9 3.2 2.2 1.9 5.5.3 7.8zm14.5-50.6c1.7 1 3.1.4 4.7.8.8-1.5-.3-2.7-1.6-3.9-1.3.8-2.3 1.9-3.1 3.1zm-8.2 14.1c.5.5 1.3.4 1.7-.1.2-.2.3-.4.3-.7-.5-.7-.8-.1-1.3-.7-.4.6-.7 1.1-.7 1.5zm-8.5 1.1c1.1 1.2 2.4-.1 1.2-1-.5 0-1.3.1-1.2 1zm-2.5 7.1c.7-.2 2.2-1.7 1.3-2.4l-.4-.4c-1.2.5-2.5 1.6-.9 2.8zm-194.6 57.1c-.5-.2-1-.3-1.5-.1-.2.6.1 1.3.7 1.5.2.1.5.1.7 0 .4-.7-.1-.8.1-1.4zm17.6 3.2c-1.1-.8-2.4-1.3-3.8-1.5-.2 1.9.8 2.9 1 4.4 1.6.1 2.2-1.3 2.8-2.9zm6.5 2.5c-.5-.5-1.3-.6-2-.3-.5 1.7 2 2.5 2 .3zm12.8 3.8c.2-.6.8-1.7-.1-2-.4.3-1.1 2 .1 2zm-9.6-8.7c-1.3.1-2.3 1.1-2.2 2.4v.4c2 .9 3.1-1.6 2.2-2.8zm5.5 9.3c-.3-.1-.4-.4-.4-.6-1.5-.3-2.9.7-3.2 2.2-.1.3-.1.7 0 1.1 1.5-.4 3.4-.4 3.6-2.7zm6.2 5.1c.5-1.6 1.5-2.5 1.7-4.6-2.2-2.1-3.8 1-6.2-.3-.8 1.2-1.2 2.6-1 4.1-.4.9-1.8.5-1.6 2.3 2.8.9 3.9-2.6 7.1-1.5zm2.1 3.5c-.1-1.9-3-2.8-4.4-1.5-1.1 3 3.9 3.6 4.4 1.5zm9.9-27.3c.4-.7.4-1.5.1-2.2h-.9c-.6.7-.4 2.5.8 2.2zm-8.6 8.3c.4-.4 1-.5.9-1.6-1-.4-1.8 1.3-.9 1.6zm2.1 15.7c.1-.9-.7-1.1-1.5-1.2-.6.5-.6 1.3-.1 1.9.8 0 1.6.1 1.6-.7zm-1.9-11.8c.6 2 .5 4.9 2.4 5.7h.5c.5-2.3-.2-5.6-2.9-5.7zm6.3 8.2-1.3-.1c-.3.9-.3 1.8-.2 2.8 1.6.4 2.1-1.6 1.5-2.7zm2.9-1c-1.6.1-1.8-2.1-3.3-1.2.4 1.3 1.6 3.1 3.2 2.3zm2.1-9.6c-1.3-1.5-3 0-4 .7-1.8-.1-3.5.8-4.6 2.2.9.8 2 1.3 3.2 1.4 1.3 0 2.3-.9 2.3-2.2 1-.2 1.3.5 2.2.4.4-.9 1-1.2.9-2.5zm19.5-7.8c1.7.5 2.2-2 .6-2-.5.3-.7 1-.6 2zm-4.1-.1c.5-.4.5-1.2.1-1.7-.1-.1-.2-.2-.3-.3-.7.6-.6 1.8.2 2zm-.5 6.1c.1-.4.3-.5.2-1.1-.3 0-.7 0-1 0-.2.9.4.9.8 1.1zm-5.2-6.3c.5.9 1.4 1.4 2.4 1.4 0-1.5.8-3-.1-4.4-1.7-.2-2.2 1.1-2.3 3zm-8 1.5c.3 2.2.8 4.4 2.3 5.3.5-1.8 1.2-3.3 1.8-4.9-.6-1-1.5-1.9-2.6-2.3-.4.7-1.2 1-1.5 1.9zm-.5 10.2c-.1 1.7 2.2 2.4 2 .1-.6-.4-1.4-.4-2-.1zm6.2 7.4c-1.6-.4-2-1-3.4 0-.5-.7-1.2-1.2-2-1.5-.7.5-1.7 1-1.1 2.2 1.6-.3 2.9.5 4 .9 1.1.3 2 .3 2.5-1.6zm1.3 0c-.4-.1-.7.1-1 .3-.1.5.3 1 .9 1.1h.1c.3-.5.3-1 0-1.4zm14.9.7c-1.9 0-2.7-1.3-4-2-1.3.8-1.9.6-3.3 1 0 .3-.1.6-.2.8.7 1.8 3 .8 4.5 1.2 0 .3.2.3.3.5-.7.8-1.7 1.2-1.5 2.8 1.4.2 1.8-.6 2.6-1 .5-.9-.6-1.2-.1-1.9.7-.1.3 1.1 1.1.8-0-.9 1-.8.6-2.2zm1.3-3.4c-.2-1.7-1.4-2-2-3.2.5-1.6-.2-3.5-.8-4.7l-1.2.1c-.5 1 .1 1.5.4 2.5-2 1.6-3.4-1.1-5.8-.8-.1 3.3-3.3 3.3-5.2 4.7-.7-.3-1.3-.8-1.8-1.4-.1-1 1-.7.8-1.9-1-.9-1.9.2-1.5 1.7-1-.1-1.2.5-1.8.8-.4 2.6 1.1 3 2.5 3.6.3-1 1-1.9 2.1-2.2.2.5.5 1 1.3.8 1.1-.7 2.5-.7 3.6 0 1.2.7 2.6.8 3.8.4.4-.7.5-1.6.9-2.3 1 .1 1-.8 2-.6-.6.8.3 1.8.4 2.8.9-0 1.7.6 2.3-.3zm.1-13.6c-.8-.6-.9-2-2.1-2.1-.6.9-.9 2-1 3.1.8 1.5 3.3 1.3 3.1-1zm1.2-6.2c-.9-.5-2.1-.1-2.5.9-.1.2-.2.5-.2.7.7 1.7 2.9 0 2.7-1.6zm.4 11c-.3.5.1 2 1.1 1.6.3-.5-.1-2-1.1-1.6zm2.7-10.2c0-1.2-.6-1.7-1.4-1.8-.3.6-.1 1.4.6 1.7.3.1.6.1.8.1zm3.2 12.5c-1-.4-2.7-.2-3 .8.5 2.2 3.6 1.7 3-.8zm2.5-.8c-.6-.3-1.4-.3-2 .2.1 1.1 1 .9 1.7 1.2.2-.4.6-.6.3-1.4zm.6-14.6c-.7-.7-2.5-.5-2.8.7.3 1.8 3.9 2.5 2.8-.7zm6.2 21.4c-1 0-1.5-.6-2.4 0 .2 1.5 1 2.1 2.4 1.9.2-.7.4-1.1 0-1.9zm3.2-13.2c.3-1.7-.1-3.5-1-5-1.6.3-1.5 1.9-2.5 2.7-.1 1.2.7 1 .8 1.8-.7.7-2.3.6-1.6 2.5 2.6.4 3.9-.6 4.3-2zm1 11.2c-.3-.6-1-.8-1.5-.5-.1.1-.2.2-.3.3 0 .5.4.6.4 1.1.6-.2 1.5-.2 1.4-.9zm.8-27.1c-1.9.2-2.8 1.3-2.6 3.3 1.8.6 2.7-1.5 2.6-3.3zm10.1-6.8c.4.2 1 .1 1.2-.3.2-.3.2-.6 0-.9-.5 0-.8-.5-1.4-.2-.1.4 0 .9.2 1.4zm-6.1 20.1c.4.2.9.2 1.3 0-.1-1-.5-1.5-1.3-1.4-.1.5-.1 1 0 1.4zm-2.6 1.9c0 .6.3 1 .7 1 0-.4.2-.6 0-1.1zm6.5 18.8c-.6-1.9-2.4-1.7-3.5-2.7-1.7-2.5.7-5.5-.8-7.2-1.5.1-1.8 1.2-1.3 2.8-.5.6-1.7.8-2.1 1.5.6 2.3 1.6 4.2 4.1 3.7.6 1.6 2.2 3.7 3.6 1.9zm-.2-10.4c-1-.1-2.1 0-3.1.3.2.6-.3.7 0 1.4.6.7 1.5.9 2.4.7.8-.3 1.3-1.1.7-2.4zm2.5-9.7c-.9-.7-1.3-2.2-2.5-2.3.2 1.7.8 3.3 1.8 4.7.5-.6.8-1.5.7-2.4zm2.2 13.1c-1.5.3-2.4 1-2.2 2.5 1.4 2 4.6-.9 2.2-2.5zm2.8-24.6c-.3-2.7-3.7-2.4-3.1 0 .4 1 2.3.8 3.1 0zm.8 26.1c-.9 1.2.4 4.4 2 4.6.4-1.6-.4-2.9-.1-4.8-.6.1-1.1-.2-1.9.2zm1.1-18.3c0-.5.3-.8.1-1.5-.7-.4-1.1.2-1.3.7.2.6.6.9 1.2.8zm.5-7.1c-.8-.3-1.7.1-2 .9-.1.4-.1.9.1 1.3 1.2 1.6 3.6-.5 1.9-2.2zm1-7.8c.2 1.2 1.3 2 2.5 1.8.1-.6 0-1.1-.3-1.6-.7-.4-1.5-.4-2.2-.2zm5 11.2c-1.3-2.1-2.8-.7-4.7-1.4.8 1.5-.2 1.8.2 3.1.6.4 1.5.3 1.9-.3.2-.3.3-.6.3-.9.7-.2 1.8.3 2.3-.5zm1.6-8.7c-.4-1.6-3.2-1-2.7.6.8 1.1 2.7 1.1 2.7-.6zm62.3-39.3c1.2.1 3.6-1.2 1.9-2.7-1 .4-2.1-.4-3.1.1-.7.8.5 1.7 1.2 2.6zm-1.4 14.9c1-.1 1.3-2.3-.2-2.4-.4.8-.8 1.6.2 2.4zm-3.4-12c.6.6 1.2 1.1 1.6.4-.2-.5-.5-.9-.9-1.2-.3.3-.5.5-.7.8zm-.2 7.8c.4.9 1.2 1.7 2.1 2 .9-.9.9-1.8-.2-2.7-.3.2-.7-.2-1-.2zm.5 9c1-.9.4-1.9-.7-3-.2.1-.4.4-.6.2-.8.9.2 2.3 1.3 2.8zm-3.5-1c-.5.6-.9 1.3-1.1 2s-.2 1.4-.2 2c2.9 2.3 5.3-3.6 1.3-4zm-.5-7.7c1.2 1.2 2.3.8 3.3-.1-1.2-1.3-2.8-1.5-3.3.1zm-5.4 8.1c1.3 1.6 2.1 1.2 2.8.3s1.4-2.4 2.7-2.8c-2.1-2.5-.7-4.4-3.7-6.6-2.5.7-1.9 2.4-1.3 4.3s1.6 3.8-.5 4.8zm-5.4-3.6c-.2 1 1.5 2.2 2.4 3.3 1.1.1 2.6-.6 1.7-1.9-1.2-.1-2.2-.7-2.7-1.8-.5.2-1-.1-1.4.4zm-5.5 7.5c1.7.6 1.8-2 0-1.9-.4.5-.4 1.3 0 1.9zm-3.8 3.8c.6.2 1.3-.7.8-1.4-.8-.3-1.4.6-.8 1.4zm-.9-6.9-.3-.5c-.1.1-.3.1-.3-.1l-.4.2c.1.1.1.3-.1.4l.3.5c.1-.1.3-.1.3.1l.4-.2c-.1-.2-.1-.3.1-.4zm-.7-7.9c.2.4.4.8.6 1.2.2-.1.4-.2.6-.4-.1-.5-.4-.9-.8-1.2-0 .2-.2.3-.4.4zm-6.7 13.8c1.3-.4 2.3 1.1 3.4 1.9l.6-.3c-.3-1.3-.7-2.6-1.1-3.8-1.1.1-2-.7-3.3.2 0 .6.1 1.3.4 2zm-8.5 6.1c.7.1 1.5-.3 1.9-.9-.1-.5-.4-.9-.8-1.2-.9.5-1.6 1-1.1 2.1zm-2.9-7.2c.4.2.9.3 1.3.3.4-.4-.1-1.6-.6-1.8-.6.1-.9.6-.9 1.2.1 0 .1.2.2.3zm-.9 10.1c1.4.3 2-1.2.8-2.8-1.5.4-1.1 1.6-.8 2.8zm-3.9-1.6c.4 2 3.1 1.6 1.8-.5-.6-.4-1.4-.1-1.8.5zm-4.7 9.8c1.8.5 2.3-1.8.8-2.7-1.5.3-1.4 1.9-.8 2.7zm2.6 5.8c-.8-.4-1.8 0-2.1.8-.5.9-.5 2 0 2.9 2.2 1.1 2.5-2 2.1-3.7zm2.9-3.4c-1.6.3-3.8-.3-3.1 2.1 1-.1 4.4.9 3.1-2.1zm2.9 7.4c-1-.2-2.7.8-2.6 1.9 1 2.4 4.2.4 2.6-1.9zm6.5 1.6c-2.2-1.3-3-3.6-5.1-.9.5 1.5 1.2 2.9 2 4.3-.2.8-1.6 1-2.1 1.7-.2-.7-.7-.7-1-1.1-1.5 1.2-1.9 2.9-1.2 5.2 2.4 1.2 2.9-2.1 4.4-3.4 1.8-1.5 4-2.4 6-4 .1-1.6-1.8-1.1-3-1.8zm13.1-19c-.7-.6-1.6-.5-2.7.2-.6-1.4-1.5-1.1-2.2-1.6-.5.3-1.2 1-1.9 1.4s-1.4.6-2 0c.2-.7 0-2.8-1.2-2.5-.4 1.5-1.2 2.7-.3 4.8 1.9 1.1 4.7-.6 6.9-.4-1.7.8-2 2.1-1 4 2.7-.1 4.9-3.1 4.4-5.9zm1.5-6.6c-1.5-2-4-.8-5.1.7.8 1.3 2 .3 3 .9.7.8.2 1.2.9 2 2.4 1 2.1-2.4 1.2-3.6zm4-4.4v-.2c-.1-.3-.2-.5-.3-.7 0-.1-.1-.1-.1-.2 0 0 0-.1-.1-.1-.1-.1-.2-.2-.2-.3-.1-.1-.2-.2-.3-.3-.5-.5-1.2-.8-1.9-.8-.1 0-.2 0-.2 0-.1-.1-.2-.2-.3-.3-.1.1-.1.2-.2.3 1.2 1.7-.3 2.5 1 4.3.3 0 .5 0 .7.2.7-.6 1.3-1.2 1.9-1.9zm2.5 4.1c-.1-.1-.1-.2 0-.3 0-.2 0-.4-.2-.6-.9-.7-1.8-.6-3 .2-.2.9 0 1.8.7 2.5.7-.9 2-1.1 2.5-1.8zm4.1 6.9c-.6-.1-1.1.3-1.3.8l.6.9c.9-.3 1.1-.9.7-1.7zm8.6-5.3c1.9-2.1-.6-5.4-2.1-7.1-1.7.1-.7 2.3-1.7 2.4-.5-.8-.9-.6-1.4-1.1.9-.7 1.7-1.4 1.1-2.2-.5-.6-.9-.4-1.4-.7-3.3 3.2-1.1 9.7-1.6 14.1 1.1 1.5 2.1 2.2 2.8-.1.3-1.6.7-3.1 1.3-4.5 1-1.5 2 .3 3-.8zm4.7 1.5c-.6-2.1-2.9-2.3-4.2-.9.4 2.8-1.9 5.3-.2 8.2 4.2-.4-.4-4.4 1.5-6.3 1.1-1 2 .2 2.9-1zm9.3-3.3c-1.7-1.1-4.7-3.3-1.1-5-1.3-1.9-1.9-4.8-2.7-6-.9-.1-1.8 1.1-2.7 1.9-.1 1.1 1.2 1 1.3 2-1.6.6-4.8 2.8-4.6 5.4 2 1.1 3.5 3.1 4 5.4.9-.2 1.9 0 2.8-1.1.5-.5-.5-1.1 0-1.6 1-.3 2 0 3-1zm-58.9 46.4c.7.1.9 1.1 1.9.5 2.2-2 1.2-5.5 1.1-8.5-1.7.1-3 1.3-4.4.3-.1.7-.5 1.4-1.1 1.8 1.5 3.2 1.1 5.4-.3 7.1 1.3-.2 1.7-.8 2.8-1.2zm1.3 21.7c1.2.8 3.3.1 3.4 2.7l1.2-.4c-1.2-1.3-2.2-2.7-2.9-4.3-1.6.3-1.8 1.1-1.7 2zm11.1-17.2c.8-.8.9-2.1.4-3.1-1.9-.6-3.6-1.9-4.7-3.6-.8 1.1-1.7 2-2.8 2.9-1.2.9-2.4 1.7-3.8 2.3-.5 2.4 1 5.8-3.4 6.3l.4 1.3c2.7-1.4 4.5.9 7.4.2-.8-1.4-2.3-3.5-2.1-5.4l1.9-.6c-.7-1-.2-1.8.6-2.3.6-.4 1.3-.8 1.8-1.2.1 1.7-.8 3 0 5 .8-1.3 2.6-2.6 4.3-1.8zm-52.4 10.3c-1.1.8-1.1 2.7.4 3 1.1-.3 1.4-3.2-.4-3zm53.7-3.7c-1.5.9-3.9 2.6-2.3 4.1.2-2 3.1-1.4 4.2-1-.2-1.2-.8-2.4-1.9-3.1zm-53-1.1c-3.4-1.2-.5 4.7 0 0zm11.8 11.1c-2.5-.6-3.7 1.5-2.4 3.5.9-.4 1.1.1 1.8 0-.5-1.7 1.2-1.9.6-3.5zm53.4-21.3c-1.7-1-3.8-.6-5 .9 1.6 3.4 4.5 2 5.1-.7 1.7-.1 1.5-1-.1-.2zm17.8-27.7c-.7.9.6 2.3-.3 3.1-.9.9-1.4.3-2.2.6 1.7.1 3.1 2.4 2.8 4.1.5-1.9 1.4-3.6 2.6-5.2l-.9-1.4c-.7-0-1.3-1-2-1.2zm3.1 23.3c.7 1.4 2.3-.2 3.6-.9-.7-2.1-3.2-.3-3.6.9zm-3.6-11.4c-.8 0-1.7.3-2.3-.6 0-1.6-.4-3.2 1-4.4-.4-.9-1.3-.1-1.7-1.2-.1-.8.5-1.5-.2-2.5-2.1-.6-4-1.9-6.4-1.4l1.2 2.2c-.1.7-1.1 1.1-.7 2 1.7 1.4 4.5-1.2 6 .7-.1.5.3 1-.2 1.4-1.3.9-2.2.2-3.4.7.2 1.3.1 2.6-.5 3.7 1 .6 2.3.7 3.4.4 2.4 2.2 8.5 1.6 5.8-2.4-1.1-.4-.7 1-2 1.4zm-14.5 9.6c1.7-.6 1.6-1.8 1.3-3.1-2-.3-1.3 1.9-1.3 3.1zm11-5.4c-1.1-.2-2.6.8-3.7.4-1.6-1.5-2.8-3.3-3.7-5.2-1.3.6.4 2 .7 3.1 0 1.4-1.2 2.6-1.8 3.8 1.3 4.1 5.2-.8 7.5.8.8.6 2.6 3.8 1.3 4.3.7 0 1.4-.2 2.1-.5-.1-2.6.2-4.5-2.4-6.7zm13.4-9.9c-1.5 1-2.5 2-1.5 3.4 1.5 1 2.6-1.1 3.3-2.3-.5-.8-1.2-.2-1.8-1.1zm-33.3 30.3c-1.3.8-2.4 1.6-2.1 3 1.2 1 3.3.7 3.1-1.2 1.3-.7 3.1-.5 3.9-1.7-.5-1-1.1-2-1.9-2.8-.3 1.2-1.8 1.9-3 2.7z" fill="#e27bf5"/><path d="m207.1 35c0 1.6-.2 3.2-.6 4.8.7-.4 1.4-.4 2.2-.8.7-.3 1.1-1.1.8-1.8v-.1c.7 0 1.4-.1 2.1-.2-.2-1.9-.7-3.8-1.6-5.5 2.5.8 5 1.3 7.6 1.6.1.4.2.9.3 1.3-2.7 1-3.6 2.6-4.2 5.3-1.4.4-2.7.9-4 1.6-1.2.6-2.3 1.3-3.4 2.1-1.3-1.8-2.8-3.3-4.6-4.6-.2-1 .1-2 .8-2.8 1.5.4 3.2.1 4.6-.9zm7.7 7.5c-.7 0-1-1.4-1.8-.5-1.9 2.1-2.1 4.8-2.3 7.6 1.6 0 3.2.3 4.6.8.3-.6.8-1.1 1.4-1.5-.4-2.7-.4-4.6 1.4-6.7-1.2-.2-2.2.3-3.3.3zm-12.8-12.8c1.8-.7 3.1-1.2 3-3.4-1.5 1.2-2.7.9-4.4.2.2 1.2.7 2.3 1.4 3.2zm43.1-11.4c-.5-.6-1.2-1-2-1-.2 1.2.1 2.5.8 3.6.5-.9 1-1.7 1.2-2.6zm18.4 19.9c.8 3.4 2 6.6 2.3 10.1 1.5.2 2.9-.9 3.1-2.3-2.2-1.4-2.6-3-2.5-5.5-.8-1-1.8-1.7-2.9-2.3zm-62.2-27.9c-.6.2-1.1.4-1.7.6.2 1.2.2 2.3.4 3.5 2-1 2.3-2.1 1.3-4.1zm25.3 6.4c0-1.9-.4-3-2.3-3.6.2 1.2.5 2.4.8 3.5.5 0 1 .1 1.5.1zm9.9 12.5c-1.4 0-2.6.9-3 2.2h2.5c.3-.7.5-1.4.5-2.2zm29.1 5c.2-1.6-.1-3.2.2-4.8-.9-1-1.3-2.2-2.2-3.2-1-1-2.4-1.6-3.9-1.6.2 1.2.6 2.3 1.2 3.4 1.8 1.8 2.8 4.3 4.7 6.2zm-102.3 12.9c.8-.1 1.6.2 2.2.8-.1 1.4-.7 2.7-1.7 3.8.5.7 1.4.7 1.6 1.6.2.6-.4 1.4 0 2.1 2.3 1.2 4.7 2.1 7.2 2.8-.4-.8-.8-1.6-1.3-2.4.5-.4.9-1 1.1-1.6-2.3-.7-4.6-.9-6.8-1.9 0-.4-.1-1 .4-1.1 1.3-.2 2.6-.2 3.9-.1.1-1.2.4-2.3 1-3.3-1.2-.5-2.4-.8-3.7-.8-2.8-1.4-6-2.9-6.9 1.2 1.3-.2 1.9-.9 3-1.1zm-21.2-1.6c-1.8-.1-2.6.7-3.7 2 .5.4 1.2.6 1.7 1.1 1.4-.8 2.2-1.4 2-3.1zm18.7-9.1c-1.4-.7-2.5-.3-3.9.4 1.5 1.2 2.6.7 3.9-.4zm.6 14c-1.2 1.4-2.7 2.6-4.4 3.5.4.4.5 1.1.9 1.4.7.6 1.6 1.1 2.3 1.7.6-.7.3-1.9 1.1-2.3s1.8 0 2.7-.1c-1.6-.8-2.6-2.4-2.6-4.2zm-21.3.9c0-.5 0-.9-.1-1.3-1.1 0-2.1-.7-2.5-1.8-1.1.1-2.1.3-2.5 1.4s.1 2.2.4 3.3c1.5-.5 3.1-1 4.7-1.6zm-6.8 7.2c-.2-1.6-.5-3.3-.9-4.9-1.3 1.9-1.4 3.7-1 6 .7-.2 1.3-.6 1.9-1.1zm-1.6 13.4c.6 1.2 1.2 2.4 1.6 3.7.3-2.1.2-4.2-.2-6.2-.4.8-.9 1.6-1.4 2.5zm144.2-34.7c-.5-1.3-.9-2.7-1.1-4.1-1.1-.5-2.3-.8-3.5-1.1.3 2 1 4 2 5.8.9.2 1.9 0 2.6-.6zm-87.9.9c1.7.7 3.6.6 5.1-.2-1.9-2.1-3.3-2-5.2 0-1 .1-.8.3.1.2zm-15.8-16c-1.7-.1-2.9-.3-4-1.6l-1 .7c1.4 1 2.8 2.1 4.1 3.3.7-.6 1.1-1.5.9-2.4zm-.7 21.8c1.4 1.8 2.6 3.7 3.7 5.6 1.2-1.1-.3-1.9-.2-3.2s1.4-2.1 2.3-2.9c-2.6-2.4-5.2-1.4-8.4-2.5-1.1-.4-2.1-2.7-1-3.8-.7-.1-1.5 0-2.2.2-.2 2.3.5 4.6 1.8 6.5 1.3-0 2.7-0 4 .1zm24-12.9c1.2-.4 2.1-1.3 2.5-2.4-1.4-.7-2.4-.8-3.3.6-1.4.1-2.8.4-4.2.9.4 1 .9 1.9 1.5 2.8 1.1-.8 2.2-1.5 3.5-1.9zm135.2 72.7c.3.5.7 1 1.1 1.5 1.2-.8 2.2-1.8 3-2.9 1-.1 2.1-.1 3.1-.2-1-1.5-2.6-1.5-3.9-2.6-1.2 1.3-1.9 3-3.3 4.2zm-.2-13.3c.6.1 1.2.2 1.8.2.6-.6.8-1.4 1.6-1.7s1.8-.2 2.7-.6c-1.2-1.1-2.8-1.8-4.4-1.8-.7 1.2-1.3 2.5-1.7 3.9zm-54.8-57.6c1.2.5 2.4 1.2 3.6 1.7.3-3.1-1.4-4.2-3.6-1.7zm53.9 68.2c0-.8-.2-1.5-.6-2.2-.6-.6-1.4-.8-2.2-.5-.1 1.3.4 2.5 1.3 3.4.5-.2 1-.4 1.5-.7zm2.1 8.6c-.1-.6-.3-1.2-.4-1.8-1.1.2-2.1.4-3.2.5.6.3 1.1.6 1.6 1.1.5.3 1.3.4 2 .2zm-250.1 131.5c1.5.3 3.1.4 4.6.4.6-3.9 1.9-8.5 2.3-11.8 1-7.4 1.4-13.2 3-19.7-1.3-.1-2.1-.2-2.2-.3-.7 1.2-1 2.6-.9 4 .2 1.5.1 3-.1 4.4-2 .6-4.2.7-6.3.1-.8 1.1-1.3 2.3-1.5 3.6-1.2.7-2.5 1.3-3.8 1.6-1.2 2.2-2.3 4.5-3.4 6.8.5.4.9 1.3 1.7 1 1-.4 1.2-1.7 2.2-2.2 1 .6 1.7 1.6 1.8 2.8 1-1.5.8-2.8.4-4.5.8-.7 1.7-1.1 2.7-1.4-.4-1.6-.6-2.7.7-3.9 1 2.9 1 5.8 1.5 8.8.8-.1 1.6.3 2 1-.5.9-.9 1.7-1.2 2.6.8 1 1.3 2.3 1.3 3.6-2.7-.2-4 .6-4.8 3.1zm243.9-148.4c-1 .8-1.8 1.7-2.5 2.8 1.1-.6 2.3-1.1 3.5-1.5-.1-.6-.5-1.1-1-1.3zm17.7 20.6c-.9-1.7-2.2-2.1-4-2.4-.3.6-.4 1.3-.4 2.1 1.4 0 2.9.3 4.4.3zm-7.3 17.3c-.6-1-1-2.6.2-3.1s1.9.7 3 .4c0-1.2-.1-2.4-.4-3.6-1.5 1.1-2.9 2.1-4.3 3.3-1.2-.3-2.4-1-3.2-1.9 1.2-.5 2.6-.9 2.8-2.3.2-.9-1.2-.7-1.2-1.6s.7-1.4.8-2.3c-1-1.8-.7-2.8 1.1-3.7.2-1.2.8-1.5 1.8-2-1.5-2.2-2.8-2.8-5.4-2.2.4 1.1.9 2 1.7 2.8-.2.4-.2.9-.6 1.1-.8.5-1.9.4-2.6-.3.2-1.5.4-2.5-1.1-3.2-.1 1-.6 2-1.4 2.6-1.6-1.2-2.5-2.6-4.7-2.1-.6.1-1.1 1.1-1.6 1.5.6.6 1.2 1.2 1.7 1.9h3.2c.8 2.4 2.3 1.9 4.2.9-.1.9-.4 1.8-.8 2.7.3.4 1 .2 1.2.7.3 1-.2 1.8-.4 2.7-1.3.1-2.6.2-3.9.5.3.5.6.9.9 1.3 2.1 2.8 4 5.8 5.6 9 1.9-1.6 3.3-2.8 3.4-3.1zm-257.6 82.8c2 2.1 4.8 2.9 7.6 3.7 0-1.4.3-2.7.9-3.9-.6-.4-1.1-.9-1.4-1.5-2.4 0-4.8-.9-6.6-2.5.1.9.2 1.9.2 2.9-.1.5-1.5.4-.7 1.3zm251.1-130.8c-.3-.3-.6-.6-1-.7-.8 1.1-.6 2.6.4 3.5.4-.6 1-1.4 1.8-1.2s.9 1 1.4 1.6c.6-.5 1.2-1.2 1.8-1.8-.1-.4-.2-.8-.5-1.1 1-3.8-.9-4.7-4.3-5.2-.6.5-1.2 1-1.7 1.6 1.7.7 3.2 1.2 2.1 3.3zm-37.4-29.2c-.3-1.4-.8-2.7-1.7-3.8-.8 1.1-1.3 2.3-1.5 3.6 2.4 1.7 4.5 2.8 7.5 2.7-.8-1.2-1.6-2.4-2.4-3.6-.3.7-1.1 1.1-1.9 1.1zm3.2-16.7c-2.1 0-3.7.2-3 2.7 1.3-.4 2.4-1.4 3-2.7zm-4-7c-.6-.2-1.5-.9-2-.3-1.1 1.2-.8 2.3.1 3.5.6-1.1 1.3-2.1 1.9-3.2zm25.1 18.1c.4-.3.7-.7 1-1.1-.7-.8-1.3-1.7-2-2.4-.6.2-1.1.4-1.7.6.6 1.3 1.5 2.3 2.7 2.9zm-29.7-16.2c-3.5 0-2.7 2.4-1.1 4.6 1.1-1.4 1.1-2.8 1.1-4.6zm18.4 22.3c-2-1.8-3.8-2.8-5.1.1 1.7-.3 3.4.2 5.1-.1zm9.8 31.2c-1 .3-.8 1.7-1.4 2.4 1.1.7 2.3 1.1 3.5 1.2.9-2.1.8-4.4-2.1-3.6zm-5.2-40.1c-1 1.2-1.9 2.4-2.6 3.7.9 1 1.4 2.2 1.6 3.5 1-2.4 1.6-4.5 1-7.2zm-2.5 25.3c.5 1 1.2 1.9 1.8 2.9 1.2-.8 2.5-1.5 3.9-2-1.6-1.2-3.7-1.5-5.7-.9zm-5.1-23.2c1.2 1.1 2.7 1.3 4.2 1.8-.4-2.8-1.8-3-4.2-1.8zm-213.1 52.8c-1.7-1-2.8-1.2-4.3.2 1.1.4 2.3.8 3.4 1 .4-.3.6-.8.9-1.2zm-15.3 43.3c-1.2-1.1-2.8-1.7-4.5-1.7.1 3.4 2.1 3.4 4.5 1.7zm-1.7 20.8c-1.5-.4-3.1-.2-4.6-.6-2.3 1.6-3.8 3.1-4.6 5.8 1.1-.1 2.2-.4 3.2-1 1.9-1.7 4.3-2.5 6-4.2zm-1.7-25.2c-1-.9-2-1.7-3.1-2.4-.2.6-.8 1.6-.3 2.2 1.1 1.2 2.2 1.1 3.4.2zm6.5-2.4c-.4-1.6-1.4-2.9-2.8-3.8.1 2.2.2 4.3 2.8 3.8zm8.7 28.3c.2-1.5-.8-2.9-2.2-3.3-1.4 2.1-2.8 2.4-5.3 2.1-.8.8-1.5 1.8-2 2.8 3.2-.5 6.2-1.5 9.5-1.6zm-26.4 40.9c-.9 1.1-2.3 1.8-3.7 1.9 0 .4 0 .7-.1 1.1 1.7-.4 3.4-.8 5.1-1 0-.8-.5-1.7-1.3-2zm5.5 14.6c-.5-1.8-1.1-3-3.1-3.3 1 1.5.5 2.5-.5 3.8 1.2.2 2.5 0 3.6-.5zm17.6-106.5c-.4-.3-.7-.6-1.1-.9-.7.9-1.4 1.7-2 2.6.3.6.5 1.2.8 1.7 1-.9 1.8-2 2.3-3.4zm-18.4 65.5c-.1.5-.3 1.1-.5 1.6 1.1.4 2 1.1 3.1 1.6.4-2.2-.4-2.9-2.6-3.2zm-3.8-18.8c.4-.6.8-1.2 1-1.8-.6-.7-1.4-1.1-2.2-1.3-.6 1.2 0 2.5 1.2 3.1zm2.8 66c-.2 1.3-.1 2.5.1 3.8 1.1-.1 2.2-.3 3.3-.6-1.1-2.2-1.7-4.4-3.5-6.2-1.1 1.2-1.2 2 .1 3zm162.7-173.1c-.1 1.1-.4 2.1-.4 3.2.7.1 1.4.3 2.1.4-.1-1.1-.1-2.3-.1-3.4-.5 0-1-.2-1.6-.2zm-150.7 100.2c-1.3.4-2.6.6-4 .8-.4 1.2-.7 2.3-.9 3.6 1.9-.2 3.8-.7 5.6-1.5 0-1.1-.2-2.1-.7-2.9zm-4.3-.2c.5-1.2 1.2-2.4 1.7-3.6-3.3-.6-3.9 1.3-1.7 3.6zm21.8-7.3c1.3-.8.8-1.7.7-2.9 1.1.7 2.3 1.1 3.5 1.2-.7-2.4-1.6-4.5-1.3-7 2.1 1.6 3.6 2.1 5.8.5-.4-2.5-.1-5.1-.3-7.7-.7-.2-1.4-.6-2-1 .1-2.3-.3-4.5-1.1-6.6.4-.6 1-1.2 1.5-1.8.5.8.8 1.7 1.3 2.6 1.1.5 2.2 1 3.4 1.4 0-1.5-.4-2.9-1.2-4.2.7-.6 1.4-1.1 2.2-1.5.9.6 1.7 1.2 2.4 2 1.7-.8 2.7-2.6 2.6-4.5 1.3.4 2.6.6 4 .6-.1-3.2-.4-7.2-4.5-5.4-.7-.5-1.4-.9-2.2-1.4.1 1.3.6 2.5.7 3.8-2.1-1.4-3.6-2.6-4.1-5.2 1.6-1.1 3-2.6 4.1-4.2 2.2.9 3.2 2.3 4.3 4.2 1-.3 1-1 1.1-1.9 1.7.8 3.4 1.5 5.1 2.1.8-.8 1.4-1.9 1.8-3 .6.7 1.2 1.3 1.9 1.9 2.2.2 4.4.1 6.6-.4-1.5-1.1-3.4-1.3-5.1-.7-.8-.9-1.5-1.9-2-3 .6-1.1 1.3-2.2 2-3.2-2.2-1.1-3.9-1.9-6.2-.7-.4-.7-.7-1.4-1-2.1.2-.4.8-.3 1-.8.1-.9-.1-1.9-.5-2.7.8-.4 1.2.3 1.8.8 1.5-.7 2.9-1.6 4.1-2.6 1.8.8 3.4 1.9 4.8 3.3 1.3-.2 1.5-1.6 1.9-2.6s.9.1 1.3-.1 0-1.7.4-1.6c3.2 1.3 3.7 3.6 4 6.8.2.3 1.2.8 1.5.5.9-1.1.2-2.2 0-3.4 1.4-1.3 1.2-2.6.7-4.4.4-.5.9-.9 1.3-1.4-.9-1.8-1.9-2.8-4-2.4-1-1.5-1.7-3.1-2.3-4.9.8-.7 1.6-1.4 2.2-2.3.7-.9 1.4-2 2.1-3 .6.8 1 1.8 1.5 2.6-.6.9-1 1.8-1.2 2.9 1.5 2.3 4.1 1.4 6 3.1 1.5 1.4.4 3.9 1.4 5.5 2.3-1.4 3.4-2.7 3-5.4-.6-.3-1.2-.5-1.9-.5-.5-1.6-.7-3.4-.6-5.1-.9-.6-1.3-.1-1.8.7-.7-1-2.5-1-3-2.1-1.5-2.9-.8-5.7-.7-8.8-.7-.7-1.9-.8-2.6-.1-.1.1-.1.1-.2.2-.3-1.6.5-3.2 1.9-4 .3-1.1 0-2.2-.7-3.1-.3-.4-.8-.1-1.2 0-.5 1.5-1 3-1.6 4.5-1.7-2.9-1.6-5-.1-8 .8.8 1.4 1.1 2.5.6 1.7 1.6 2.5.5 3.4-1.2.7-.3 1.4-.3 2.2-.6s.7-1.5 1.7-1.5c1.5 0 2.4 1.3 3.3 2.4.8-1.1 1.5-2.4 1.8-3.7-1.5-1.1-3-2.2-4.5-3.4 1.4-.6 3-1 4.5-1.1.6 1.2-1.1 1.8-.2 2.9s2.8.5 4-.1c2.2 1.7 4 3.6 6 5.4-.8 2.4-.9 4.9-1.4 7.3-1.2.9-2.5-1.3-3.4.2-1.7 2.8.6 5.9 2.5 8.2 1-.4 1.1-1.4 1.8-2.2.5.6 1.1 1.1 1.7 1.7-.8.2-1.3 1.1-1.1 2 .3.8 1.1.8 1.6 1.4 1.7-4.5 1.7-9 2-13.8 2.1 2.6 4.1 5.4 5.9 8.2.8 1.3-.8.5-1.4.9.9 1.4 2.1 2.6 3.1 4 .8.3 1.1 0 1.8-.4 1.7 2.5 3.6 4.7 5.5 7-1.8 1.8.3 3.3 1.6 4.7.5-.3.7-.9.7-1.5 3 3.4 6 6.9 8.7 10.5-2.7-3.6-5.6-7.1-8.5-10.6.9.6 2 .5 2.8-.3-.6-1.4-1-2.9-1.6-4.4-.3-.1-.6-.2-.8-.3-.8.8-1.7 1.5-2.6 2.1-2-2.5-4-5-5.9-7.6 0 0 .2 0 .2-.1-.3-1.2-1.2-2.2-2.3-2.7-2.6-3.5-5.1-7.1-7.4-10.8-.2-1-.6-2-1.1-2.9 1.6-.4 3.3-.3 4.8.3.6-1.1 1.4-1.2 2.5-1.3 1.2 1.2 2.6 2.3 4.1 3.2-.3 1.2-.2 2.4.2 3.5 1.3.2 2.4-.1 3-1.3.3-1.2.9-2.2 1.8-3.1 0 1.5.1 3 .3 4.6 1 .4 2 .5 3 .4.5.7 1.1 1.3 1.7 1.9 1.4-.3 2.8-.4 4.2-.4.5-.8 1-1.7 1.4-2.5 2.2.2 4.2 1 6.1 2.2.8-.7.5-1.4.4-2.3.6-.1 1.3-.3 1.9-.5-.5-.9-1.3-1.5-2.2-1.7.5-1 .8-2.1 1-3.2-2.4-2.3-3.9-4.7-7.6-3.5-1.5.4-1 3.3-.5 4.5 1.8.2 2.8-.5 4-1.7 1.4 3.9-.7 4.3-3.8 2.4-.6.8-.8 1.7-.8 2.6-.9-.2-1.9-.2-2.8-.2-1.5-2.3-3.9-4-6.6-4.6.2-1.1.6-2.2.9-3.4 1.3.3 2.6.7 3.8 1.2.2-3.7-1.5-6.8-2.3-10.3 3.2.5 5 1.7 6 4.8 1.5 0 2.9-.5 4.1-1.4 1.2.3 2.4.6 3.6 1 .8-.6.8-1.3.5-2.2 1.6-.7 3.3-1.2 5-1.4 1.6-.1 3.3-.5 4.8-1-1.5-.9-3.3-1.2-4.9-.7-.6-.9-1.3-1.7-2.3-2.3-1.6.7-2.9 1.4-4.7 1 1.1-.5 2-1.3 2.6-2.3-.7-.7-2-.4-2.6-1.2s.5-1.1.8-1.7c2.7.4 5.4 1 8.1 1.8.8 1.3 1.7 2.5 2.8 3.5 1.6.2 3.2.7 4.6 1.3-.1 2.1.5 4.2 1.7 6 3.3.1 6.4-.1 9.7.7-.6 1.7-1.1 3.4-1.4 5.2-.6 0-1.4 0-1.7.6-.3.7-.1 1.6.4 2.1 1.8 1 2.8-.1 4.3-1-.2-1.3-.5-2.5-1.1-3.7.9.2 1.8.4 2.7.6.6 2.6 2 4.2 3.8 6-.1 1.5.4 3 1.5 4 .3-3.6-.1-7 1.3-10.4-.4-1.6-.3-3.2.2-4.7-.9-.5-1.5-.1-2.4.3.1-1.4.1-2.8 0-4.1-1.2.7-2.5 1.3-3.9 1.7-1.6.4-3.2.5-4.8.3.6-1.9.6-3.9-.1-5.7 2.1-1.2 3.8.8 6 .2 2.7-.7 2.5-3.6 2.6-6 0-.7.8-1 1.3-1.2s1.4-.5 1.5-.9c.1-1.3-.7-2.2-.8-3.4.7-.2 1.5-.3 2.2-.3.9 1.4 2 2.6 3.3 3.6-.3.9-.7 1.7-1.3 2.4-.8-.2-1.4-1-2.3-.5s-.5 1.7 0 2.4c-1 1-2.3 1.6-3.8 1.8 1.9 2.6 3.6 3.1 5.7.5.7.4 1.6.6 2.4.6.7-2.6 1.3-5.3 1.9-8 2.2 1.1 3.7 1.3 5.4-.8 1.8 1 3.6 1.9 5.5 2.8.5 1.4 1.3 2.6 1.9 3.9-.5.4-1 .8-1.6 1.1s-1.1.7-1.6 1.2c-.6-1-.4-2-.5-3.1-.2 0-.4-.1-.5-.3-3.4.5-5.5 1.2-6.7 4.7 1-.2 1.9-.5 2.9-.9.9 1.1 1.5 2.4 1.6 3.8 1.7.9 2.9 1.6 4.9 1.1 1.7 2.2 3.1 3.5 4.9.7.7.3 1.5.6 2.2.8.1.9.1 2 1.1 2.3s1.2-.8 1.5-1.4c.6.3 1.3.5 2 .6-.6-2.7-.9-5.4-.8-8.1 2.5.9 2.3 2.6 1.9 4.9.9.1 2-.4 2.8.2s.4 1.6.6 2.4c-1.3 1.5-2.3 3.1-3.3 4.8-2.3.5-4.5 2.7-2.3 4.6 1.4 1.2 2.9-1.3 2.6-2.6 1-.5 1.8-1.1 2.6-1.9.1-1.4.4-2.8.9-4.2 1.1 0 2.3-.2 3.3-.5 1.1-.4 2.2-.6 3.3-.6.2 1.7.5 2.7 2.3 2.8.1-1.2-.6-2.4-1.8-2.9.5-1.4.9-2.8 1-4.3 2.1-.4 4.3.3 5.8 1.8-.5 1-1.1 1.9-1.9 2.6.3 1.3.5 2.5 1.5 3.5 1.3-1.2 2.6-2.5 3.7-3.9.6.5.3 1.6 1.3 1.5s.8-1.5.1-2.1c1.2-1.9 2-3.6 4.1-4.6.3 3.8-.6 5.9-4.1 7.6-.3.6-1.2 1.8-.9 2.5.6 1.3 1.7.8 2.8.9-.7 1-1.2 2.2-1.5 3.4 2.3-.4 4.4-1.2 6.7-.7-1.7 1.9-2.6 3.3-1.6 5.8 2.2-.1 4.3.6 6.5.9.3-.7.8-1.3 1.3-1.9 1.8.7 3.8.8 5.6.3.5.6.9 1.3 1.2 2-.8.3-1.6.4-2.4.8-.6 1.1-1.3 2.1-1.9 3.2 1.2.4 2.5.4 3.7-.2.3.9.5 1.9.6 2.8-.7.8-1.5 1.5-2.3 2.1.2 1.8 1.4 3.4 3.2 3.9-.7 1.3-1.3 2.7-1.7 4.1 3.3.7 6.3.7 5.9-3.4.7-.6 1.3-1.2 1.9-1.9-1.2-.2-2.4 0-3.5-.3 1.7-1.8 3.2-3 5.7-2.9.6 1.8 1.4 3.5 2.6 5-1.3 1.7-3.1 2.9-5.1 3.5 0 1 .5 1.2 1.3 1.5-1.2 1.5-2.3 3.1-3.3 4.7.5.9 1.2 1.7 2.1 2.2-.8.4-1.6 1-2.3 1.5-.7 1.9-1.1 3.9-1.2 5.9 1.3-1.1 2-2.7 1.8-4.4 1-.6 2-1.1 3.1-1.4.8.7 1.6 1.4 2.2 2.3 1.5-1.7 2.7-3.1 2.3-5.5.7-.2 1.4-.4 2.1-.7.3.3 0 .8.4 1 .8.2 1.7.2 2.5-.1 0 .8-.7 1.1-1.3 1.6.1 1.4.4 2.8.8 4.2-1.2 1.4-2.7 2.6-4.3 3.6-.3 1.1.7 1.5 1.4 2s-.3.7-.3 1.1 1.1.4.9.6c-1.7 2-3.6 2.2-6.1 2.1-.3.1-.9.8-.8 1 .6.8 1.5.4 2.3.5.4 1.4 1.3 1.5 2.6 1.5.1.4.2.8.3 1.2 1.4-.3 2.6-1.3 3-2.7 1.2-.5 2.5-.8 3.8-.8 0 1.6.2 3.1.6 4.6-.7.2-1.3.4-2 .6 0-.4-.3-1.5-.8-1.4-1.8.3-2.3 1.5-3.1 3-.1 0-.4.2-1.1.6-1.2-1.3-2.4-2.6-3.8-3.8-5.1-4.5-9.3-5.9-15-9.1-2.5-1.4-7.6-3.2-10.2-4.4-7.5-3.7-15.6-6.2-23.9-7.6-8.5-1.4-13.6-1.1-22.4-.7-7.5.4-18.7.8-26.2 2.5-8.8 2-17.4 4.8-25.7 8.2-3.3 1.4-7.8 4.8-11 6.3-6 3-12.6 4.9-18.3 8.6-5.6 3.6-9.1 7.2-14.3 11.5-3.9 3.2-9.5 6.8-13.4 10.3-.2-.4-.5-.7-.9-1-.8.7-.7 1.3-.1 1.9 0 0 0 0-.1.1-3 3-3.6 5.9-6.4 9.1-6.7 7.7-12.7 16-17.9 24.8-1.8 3.1-2.8 7.8-4.4 11-3.8 7.4-7.6 13.9-10.4 21.7-2.4-.9-4.6-1.8-5.3-2.1-.6.8-.2 1.4.2 2.1-1.3-.4-2.7-.7-4.1-.9 1.2 2.5 1.8 5.2 1.8 8-1.7-.9-3.7-1.3-5.7-1-.9-2 1-3.3.5-5.4-.7-2.6-3.5-2.9-5.9-3.1-.8-.9-1.6-1.9-2.2-2.9-1.1.1-2.2.4-3.3.5-.1-.7-.2-1.4-.2-2.1 1.4-.6 2.6-1.4 3.8-2.4.8.4 1.6.9 2.3 1.5-.3.7-1.2 1.1-.7 2s1.7.6 2.5.2c.9 1 1.5 2.3 1.6 3.6 2.8-1.3 2.9-2.8.7-4.9.4-.6.6-1.4.7-2.1-2.5-1.1-5.1-2.1-7.8-3 1.2-2.1 1.3-3.4-.6-5 1-1.5 2-3.1 2.9-4.8 1.3-.4 2.6-.9 3.8-1.4.8 1.1 1.5 2.2 2.3 3.2-1 .5-2 .3-3.1.3 0 .2-.1.4-.3.5.5 3.3 1.4 5.4 4.4 7-.2-1-.5-1.9-.8-2.9 1.1-.8 2.4-1.2 3.7-1.2 1-1.6 1.7-2.9 1.2-4.8 2.3-1.7 2.9-3 .6-4.9.3-.7.5-1.4.7-2.1.8-.1 1.8.1 2.1-.8s-.7-1.2-1.4-1.6c.2-.6.4-1.3.4-2-2.5.4-5 .6-7.5.4.7-2.5 2.3-2.2 4.5-1.6.1-.9-.4-2 .2-2.8s1.5-.3 2.2-.6c1.4 1.3 2.9 2.4 4.5 3.4.4 2.4 2.4 5.3 4.8 3 1.5-1.4-1.4-3.4-2.9-3.2-.5-1.1-1.1-2-1.8-2.9-1.3 0-2.7-.3-3.9-.8-.2-2.4-.7-4.7-.8-7.1 1.7-.2 2.7-.7 2.8-2.6-1.3 0-2.4.8-2.9 2-1.3-.6-2.8-.9-4.2-1-.4-2.2.2-4.4 1.7-6.1.9.4 1.8 1 2.5 1.7 1.3-.4 2.5-.6 3.5-1.7-1.2-1.2-2.5-2.4-3.9-3.3.4-.6 1.6-.4 1.4-1.4s-1.6-.8-2 0c-2-1.2-3.8-2-4.9-4.2 3.7-.2 6.1.6 7.9 4 .9.9 2 1.8 2.7 1.3zm1.3 37.4c-.1.5-.3 1.3.4 1.4.4 0 .8-.3.9-.7 0-.2 0-.4-.2-.6-.3-.4-.8-.1-1.1-.1zm-2.2-3.4c.6.3 1.2.5 1.8.6.4-.6.6-1.3.6-2.1-1-.1-2 .5-2.4 1.5zm-3.2 18.8c-1.5-.9-3.4-.9-4.9.2 1.5.6 3.1 1 4.6 1.4.2-.5.3-1.1.3-1.6zm2.3-2.6c0-1.1-.7-2.2-1.7-2.6-1.4 1.8-.2 2.6 1.7 2.6zm5-5.6c-.7.2-.7-.8-1.5-.2-1.4 1.1-.7 2.5.9 2.9.4-.9.6-1.8.6-2.7zm.1-.9c-.3-1.3-1-1.8-2.2-2.1-.3-.8-.5-1.6-.8-2.3-2.2 0-3.5.4-4.6 2.3-1.7.2-2.9.5-2.7 2.5 1.3-.5 2.5-1.2 3.5-2.1 2.2.5 4.4 1.4 6.8 1.7zm215.7-87.8c.2.3.5.5.9.6.5-.6.8-1 .1-1.6-.4.3-.7.7-1 1zm-9.7-8.8c.3 1 .9 1.9 1.6 2.7.9-1.3 1.6-2.7 2.3-4.1-1.5-.1-2.9.4-3.9 1.4zm-43.7-17.9c-.1.7.2 1.5.7 2 .3-.7 0-1.6-.7-2zm9.9 1.1c-.4.5-.6 1.2-.3 1.8.4-.4.6-1.2.3-1.8zm3.5 2.3c-.1-.9-.4-1.7-1-2.3-.6 1.4-1 2.9-1.2 4.4 1.4.1 1.7-.9 2.2-2.1zm-1.2-6.3c.2-.4.1-.8-.1-1.1-.1.2-.5.6-.4.8s.4.2.5.3zm6.2 8.3c.6-1.9.9-3.9.8-5.9-.9 1.3-1.9 2.5-3 3.8.1 1.1.3 2.2.7 3.2.6-.4 1.1-.7 1.5-1.1zm1.2 5.4c-.5.6-.8 1.3-.9 2 0 .2.3.3.4.5.7-.7.9-1.7.5-2.5zm8.5-3.4c-.5.1-1 .5-1.3 1 .9.4 1.2-.2 1.3-1zm8.1-5.6c-.6.4-1 1-1 1.7.7-.4 1.1-.8 1-1.7zm3.2 11.7c-1.5-1.2-2.2-.2-3 1.2 1.4.4 2.2-.2 3-1.2zm2-1.2c0 .6.4 1.2 1 1.4.5-1.3.6-2.3-1-1.4zm1.6-9c-1.2-.7-2.8-.6-3.9.3 0 .3 0 .5-.1.8 1.7.8 2.7.3 4-1.1zm-2.3-8.1c.8-2.2.5-3.8-2.1-3.6-.3 1.9.1 3 2.1 3.6zm-2.6.5c-1.2.9-2.4 2-3.4 3 .8 1.5 2.2 2.4 3.4 3.7 1.2-.8 2.2-1.8 3-3 .9-.1 1.7-.5 2.4-1.1-1.8-1.1-3.7-1.6-5.4-2.6zm-3.1-1.2c.6-.3 1-.9 1.1-1.6-.4-.4-.9-.8-1.3-.2s-.2 1.3.2 1.8zm-4.9-.9c.3.2.5.4.8.6.6-.7 1.1-1.5 1.5-2.3-1.4-.2-1.8.6-2.3 1.7zm-.3 10.2c.8-2.1 1.7-3.9 1.5-6.2 0-.1-.2-.2-.3-.3-1.4 2.2-1.9 4-1.2 6.5zm-1.9-10.6c.4.9.6 1.8 1.4 2.5.3-1.4.4-2.5-.9-3.4zm-3.1 6.7c-.4-.4-.8-.9-1.2-1.3-.6.5-1.2 1.1-1.7 1.7.6 1.3 1.4 1.4 2.7 1.3 1.2.6 2.6.7 3.8.3-.4-.9-.4-2-1.3-2.6s-1.7 0-2.3.6zm-1.8-3.2c.2-1.2-.1-2.1-1.3-1.1.2.5.7.9 1.3 1.1zm-1.2-8.7c.6.7 1.4 1.2 2.3 1.4.1.8.4 1.5.9 2.1.8 0 1.4-.6 1.7-1.3-1-.7-1.8-1.6-2.6-2.5-.9-.9-1.6-.4-2.3.3zm-.9-.6c.1.2.4.3.6.3.1 0 .1-.1.2-.1.3-.3.2-1-.3-1.1s-.7.6-.5.9zm-11.6-4.6c1 .7 1.9 1.6 2.6 2.6 1-.1 2-.1 3 0 .1-.2.3-.4.5-.6-.7-1.3-1.8-1.7-3.2-2.1 0-.2 0-.4-.1-.5.9-.5 1.7-1.3 2.1-2.2-.8-.1-1.7 0-2.5.3-.2.6-.3 1.2-.5 1.7-.3-.3-.3-.7-.7-.9-.4.4-.9 1-1.2 1.7zm-2 2.6c.2 1 .4 2 .8 3-.4 1.2-.6 2.6-.6 3.9l.9.2c.3-.7.4-1.4.4-2.1 1.7.2 2.7 1.1 4 2.1 1.5-1.6 3.2-2 5.3-2.2.3.5.5 1.1.7 1.7-.4.4-.9.8-1.3 1.3.9.7 1.3 0 1.7-.8.5.1 1 .1 1.5 0 .6-1.3.5-2.7-.3-3.9-.6.6-1.5 1-2.3 1.1 0-.5-.1-.9-.6-1-1-.1-1.9-.5-2.7-1.2s-1.8-1.2-2.9-1.3c-.5.5-.9 1.1-1.3 1.7-.6 0-1.1.1-1.7.1.3-.7.4-1.5.3-2.3-.6-.3-1.3-.5-1.9-.3zm-.9 16c.4-.4.7-1 .8-1.6-1.1 0-1.2.7-.8 1.6zm-2.3-5.1c.2.8.5 1.6 1 2.3.5-.8 1-1.6 1.5-2.4-1-1.2-1.7-1.1-2.5.1zm0-4.3c.3-.7.2-1.2-.5-1.5-.3.7-.2 1.1.5 1.5zm-2 9.5c1.1.5 1.6.2 2.2-.8-1.1-1.1-1.7-.3-2.2.8zm-2.3-12.7c.8.5 1.8.5 2.5.1-.7-1.6-1.6-1.6-2.5-.1zm-30.5 19.3c-.4-1.1-1.3-1.9-2.3-2.2 0 .6 0 1.1.2 1.7.6.3 1.3.5 2.1.5zm13.9-14.9c-.2-.4-.6-.3-1-.3 0 .7.4 1.3 1.1 1.6.1-.4 0-.8-.1-1.3zm2.5-1.2c0-.4-.2-.8-.6-1.1 0 .3-.2.7-.1 1s.5-0 .7.1zm2.5 11.7c-1.8.1-2.1 1.1-2.4 2.7 1.4-.3 2.3-1.4 2.4-2.7zm9.7-14.8c.4.4.9.5 1.4.3-.1-.6-.5-1.1-1.1-1.4-.2.3-.6.4-.3 1.1zm-3.1 12.3c.6.6 1.5.6 2.1.1 0 0 .1-.1.1-.1-.7-1.7-1.6-1.7-2.2 0zm-1.7-20.4c.7.4 1.4.6 2.1.7-.1-1.1-.8-2.1-1.8-2.5-.3.5-.4 1.2-.3 1.8zm-4 .6c0 .5.4.9.9.8.2 0 .4-.1.5-.2.3-.2-.1-.7-.1-1-.4-.1-1.3-.2-1.3.4zm-.2 15.4c.9-.4 1.7-1.1 2.4-1.9-.1-.6-.2-1.2-.3-1.8.9-.4 1.5-.8 1.6-1.8-1.4-.4-3.1-.8-3.8.8s.1 3.1.1 4.7zm-6.4-24.2c.7 1.3 1.6 2.5 2.6 3.6 0 2.4-.6 4.7-.6 7.1 1.3-.3 1.6-1 1.7-2.3.7-.3 1.5-.5 2.1-.9-.4-2.2-1-3.6-3-4.7-.4-1.8-.9-3.1-2.8-2.8zm-1.7 10.1c.9.3 1.9.5 2.8.5-.1-.6.4-.8.1-1.4-.3-.7-1.1-1.2-1.9-1-.9.2-1.3 1-1 1.9zm-2.2 6.5c-.4.7-.6 1.5-.6 2.4.5 1 1.2 1.9 2.1 2.6-.2-1.7-.7-3.4-1.5-5zm-1.4-11c1.1 0 2.1-.8 2.4-1.9-1.9-1.2-2.6-.1-2.4 1.9zm-4.2 23.7c.4 1.3 2.5 3.2 2.7.7 0-1.2-2-1.2-2.7-.7zm-.8-26.1c.6.2 1.3.3 1.9.3.6-1.8.1-3.8-1.4-5.1-.3 1.6-.3 3.2-.5 4.8zm-.9 19.6c.5.2 1.1.1 1.4-.3-.2-.5-.6-.9-1.2-1.1-.1.4-.2.9-.2 1.4zm-.8 5.3c1.4.1 1.9-.3 2-1.7-1.8-1-2.4-.1-2 1.7zm-5.7-4.7c1.3 1.2 2.9 2 4.5 2.5 0-1 0-2 .1-3.1-1-.5-1.7-.4-2.3.6-.7-.2-1.5-.2-2.3 0zm-1.5 8.1c.1 1.5 2 1.9 2.2.2-.3-.9-2.3-1.7-2.2-.2zm-18.7 2.3c-.5-.2-1.6-.4-1.9.2s.5.9.7 1.3c.9-.2 1.3-.5 1.2-1.5zm3.1 7.7c-.3-.5-.8-.9-1.3-.5s0 1.4.6 1.5c.4.1.7-.2.8-.5 0-.2-.1-.3-.1-.5zm1.1-9.3c-1.7.1-1.5 1-.9 2.3 1.2-.4 1.2-1.1.9-2.3zm4.4 2.9c-.7-1-2.2-2.4-2-.2.6.4 1.3.5 2 .2zm5.2-8.3c-1.9 0-1.7 1.1-.9 2.4 1.4-.5 1.4-1.2.9-2.4zm-2.7-6.4c.9.3 1.6.5 2.3-.3.5-.8.6-1.8.3-2.7-2.3-.2-2.6 1-2.6 3zm-3.1 2.7c1.6.3 2.9.6 3.4-1.2-1.7-.6-3.2-1.1-3.4 1.2zm-2.6-8.1c.6.6 3 0 2.6-.9-1.1-2.1-3-1.2-2.6.9zm-10.4-5.3c.6 1.5 2.1 1.7 3.2 2.6 1.9 1.5 3.1 2.9 5.6 1.9-.5-1.6-1.1-3.2-1.8-4.7.8-.6 1.6-1 2.5-1.3.3.5.6 1 1 1.4 1.4-1.2 2-3.1 1.7-4.9-2.4-.6-3.4.8-5.2 2.1-2 1.5-4.5 2.1-7 2.9zm-27.4 11.5c-.9.4-1.1.8-.7 1.7.5.1 1.3 0 1.4-.5s-.6-.8-.7-1.2zm8.9 11.3c-.1-1-.5-1.9-1.1-2.7-.9.5-1.9.9-2.8 1.4.3.3.1.6.5.9 1 .7 2.3.8 3.4.4zm5.2-6.5c1 .6 2.1.8 3.2.7.7.9 1.6 1.6 2.6 2.1.8-.2 1.4-.6 2.3-.8.8-.2 1.6 0 2.2.5-.2 1.1.4 2.2 1.4 2.7.5-1.4.7-2.9.4-4.3-2.6-.7-5.3-1.3-8.1-1.6 1.7-.9 1.7-1.9 1.1-3.6-3 .3-4.6 1.1-5.1 4.3zm-1.4 5.9c2 2 3.4 1.6 5.8.9-.8-.9-2.3-1-3.2-1.6s-.7-1.5-1.4-2.2c-2.6-.7-2.3 1.7-1.2 2.9zm.7 2.4c-.9.1-1 .5-.7 1.3.9-.1 1-.5.7-1.3zm2.9 6.9c0-.2-.1-.3-.3-.4-.1-.1-.3-.1-.4-.2s-.3 0-.4.1v.4c0 .2.1.3.3.4.1.1.3.1.4.2.1 0 .3 0 .4-.2.1 0 .1-.1 0-.3zm3.5-2.7c1.2.4 2.4.6 3.7.6-.1-.7-.3-1.3-.6-2-1.5-.6-2.9-1.5-4.1-2.6l-.7.2c.5 1.2 1.1 2.5 1.7 3.8zm-16.3 15.5c-.6-1.2-1.2-2.5-1.6-3.9-2.8.7-.3 3.1.8 4.5.3-.1.6-.3.8-.6zm2.2.7c-.9.4-.8 1-.3 1.7.4-.2 1-.1 1.1-.6s-.5-.7-.8-1.1zm8.6-3.7c.6.5 1 .4.7-.4zm-2.4-5.2c.1.3.5.6.7.9.4-.6.1-.9-.3-1.3 0 .2-.5.1-.4.4zm.3 4.2c-.2-.9-.5-1.8-.9-2.7-2.9.2-.5 2.1.9 2.7zm-4.3-7.1c.3.5.6 1 1 1.4.4-.2.8-.4 1-.8-.4-.6-1.2-.8-2-.6zm-5.5.3c1.9 1.5 3.6 3.2 5 5.3.4-.5 1.5-.8 1.3-1.6-.3-1.2-1.5-1.8-2.2-2.8.4-.8 1.1-1.3 1.5-2.1-.9-.9-2-1.7-3.3-1.2s-1.4 1.6-2.3 2.4zm.3-9.5c.4-.6.4-1.3 0-1.9-1.9 0-1 1.1 0 1.9zm-4.4 13c1.1.2 2.3.1 3.3-.3-.8-1.2-1.8-2.3-3-3.1-.6 1.1-.7 2.3-.3 3.4zm-18.7-8.8c-.4 1.4 0 2.3.9 3.4.4-.1.7.4 1.1.3s.5-.6.8-.9c-.8-1.1-1.7-2.1-2.8-2.8zm1.6-4.5c.2-.1.4-.2.6-.1 0-1.5-.7-2.8-1.9-3.7-.3 1.7.3 2.6 1.3 3.8zm-2.8 21.1c1-.2 2.3 1 3.1.1s-1-2.1-1.7-2.6c-1.9.2-2.4.9-1.4 2.5zm5.1 7.5c-.7-.6-1.2-1.1-2.2-.9.7.8 1.2 1.4 2.2.9zm.6-12.4c-.1-.4-1.3-1.5-1.6-.5-.1.5.8 1 1.1 1.3.2-.3.7-.4.5-.8zm1.9-8.6c-1.2-.9-2.1-1.2-3.5-.5 1.2 1.1 2.3 2 3.5.5zm4.7 9c-.9-.7-1.9-1.3-3-1.8-.4.4-.6 1-.6 1.5 1.3.7 2.6 1.3 3.9 1.9-.1-.5-.2-1.1-.3-1.6zm6.4-.3c-1.9-2.2-4.1-4.1-6.4-5.8.6 3.6 3.1 4.8 6.4 5.8zm.2 11.1c-.6-.9-1.3-2-2.6-1.9s-.3 1.7.3 2c.8.4 1.6.3 2.3-.1zm-5-25.2c1.3.6 2.5 1.5 3.5 2.7.5 0 1 0 1.4-.1-.8-1.6-1.9-3-3.2-4.3-1.4-0-2.1.3-1.7 1.7zm-7.7-1.2c1.6 2.9 3.5 5.8 5.5 8.4 1.9-1.4 1.3-2.8.4-4.7s-1.6-3.5-.1-5.3c-.7-1-1.9-1.9-3.1-1s-1.4 2-2.7 2.6zm-.7-2.7c.4-.7.7-1.4.9-2.1.1-.8.1-1.5 0-2.3-4.4-.9-2.9 2.1-.9 4.4zm-5-16.1c.8 1.8 2.8 2.9 4.8 2.5.6-2.6 1.5-5.2 1.5-7.9-3.1.5-1.8 3-3.1 5.1-.7 1.1-2.2-.3-3.2.3zm-2 14.1c-.4-1-1.1-1.9-1.6-2.8 2.2-1 3.8-3 4.4-5.3-2.1-2.2-3.7-4.7-4.7-7.5-1.1 0-2-.1-2.7.8-.4.5.2 1.2 0 1.8-1 0-1.9.3-2.8.7 1.9 2.1 3.1 3.7 1.6 6.4 1.1 2.6 2.1 5.2 3.3 7.8 1-.4 1.9-1.1 2.5-1.9zm1.3 8.2c.2-1-.1-2.1-.7-3-1.2 1.2-.4 2.1.7 3zm-4.6 16.5c.9.4 1.8.8 2.8 1 .6 1.2 1.3 2.4 2.3 3.3.6 0 1.1-.1 1.6-.3-1.3-2.3-3-4.2-5.2-5.6-.8.1-1.4.8-1.5 1.6zm-1.9 12.8c-2.1 1.1-.1 2 1.3 2.4-.1-.9-.6-1.8-1.3-2.4zm-.5-18.6c.1.1.4.3.5.4 1.4-.9 1.1-1.6.2-2.8-1 .7-1.3 1.3-.7 2.4zm-1.4 5.6c.6-.1 1-.2 1.1-.8-1.1-.5-1.8-.4-1.1.8zm-1.3 17c1.3.4 1.9 0 .9-1.2-.6.1-.9.6-.9 1.2zm-4 1.3c.6-.1 1.3.2 1.3-.7 0-.4-.8-.9-1.2-1-.7.5-.5 1-.1 1.7zm-3.9-18.7c.4.3.9.5 1.4.8.3-.4.5-.9.5-1.3-.9-.5-1.4-.5-1.9.5zm1.6 31.7c0-1.1-.7-2.1-1.7-2.6-1.2 1.8-.1 2.5 1.7 2.6zm-10.7-21.5c.1 1.5.8 2.8 1.9 3.8 1.1-.6 2-1.5 2.7-2.5-1.5-.5-3.1-.9-4.6-1.3zm1 13c.1-1.3-.7-2.4-1.8-2.9-.6 1.8.1 2.5 1.8 2.9zm-20.8 50.3c-.8 0-1.1.5-1.6 1.1.5.3.6.9 1.3.6.5-.5.6-1.2.3-1.7zm-.4-.6c.6-.9.6-2 0-2.9-1.9.7-1.5 1.8 0 2.9zm3.7-4.6c-.8-.4-1.3-.4-1.8.4.8.5 1.3.4 1.8-.4zm-.8-28.6c.3.1.6.3.9.4.8-.8 1.8-1.3 2.3-2.3-1.6.1-2.5.4-3.2 1.9zm1.1-2.3c.2-.4.3-.7.5-1.1-.7-.5-1.5-.9-2.4-1.1-.1 1.4.6 1.9 1.9 2.2zm3.9 7.5c-1.4.1-1.9.6-.7 1.7.5-.4.8-1 .7-1.7zm1.7 13.3c-.4-.2-.9-.1-1.2.3.3.2.6.4.9.6.1-.3.2-.6.3-.9zm1.2-16.1c-.3.6-.8 1.1-1.1 1.7.6.6 1.2 1.1 1.9 1.6 1.2-1.1 1.2-2 .8-3.5.4-1.6.2-3.2-.4-4.7-1.8 1.5-2.6 2.7-1.2 4.9zm7-23.5c.6-.3.9-.9.9-1.6-1.6-.3-1.9.3-.9 1.6zm-.8 17.7c.2.6.6 1.1 1.1 1.4.2-.9-.1-1.4-1.1-1.4zm-5.7 12.8c1.3 1.1 2.6 2.2 3.8 3.3 1.1-.2 2.1-.6 2.9-1.2-.3-.7-.7-1.3-1.2-1.9-1.7-.6-3.6-.6-5.5-.2zm-3.8-14.2c-.1.1-.1.3-.2.4 2.3 1.1 4 1.3 6.1-.3-2-.5-3.8-1-5.9-.1zm4.4-6.3c-.5-.8-.9-1.2-1.8-.7.6.6 1 .9 1.8.7zm-1.1-4.6c.2-.1.5-.2.7-.1.4-2-.2-3-1.9-4.1-.3 1.5.2 3.1 1.2 4.2zm-6.5 3.4c1.1 1.2 2.3 2.2 3.5 3.3 1.2-1.6 1.6-3.4 2.3-5.2-.9-1-2.1-1.9-3.3-2.5-.4-.9-.9-1.7-1.7-2.4-.3 2.3-.1 4.6-.8 6.8zm-2 3.2c-.2.6-.5 1.2.1 1.6s1.2-.2 1.5-.7c-.3-.6-1-.9-1.6-.9zm-1.7-3c2 .6 2.7-1.2 2.6-2.9-.7-.7-1.9-.6-2.6.1 0 0-.1.1-.1.1-.6.8-1 2.4.1 2.7zm-1.3 20.1c.7-.8 1.2-1.8 1.2-2.9.7-.3 1.4-.7 2-1.2-.2-.8-.8-1.4-1.5-1.7-1.3 2-2.6 3.4-1.7 5.8zm-1.5.6c0 .5.7.6 1 .4.3-.1.4-.4.3-.7 0-.1-.1-.1-.2-.2-.3-.1-1.1.1-1.1.5zm-.9 13.5c-.5.5-.7 1.3-.5 2.1 1.2-.1 2.4-.3 3.5-.7 1.4.6 2.9.9 4.4.9.1-.4.2-.8.3-1.1-.7-.3-1.5-.5-2.3-.5.4-1.9 1.5-3.2 2.5-4.8-1.8-1.8-2.2-3.7-2.6-6.2.6-.4 1.2-.8 1.8-1.1.5.5 1 .9 1.5 1.3.7-1.1 0-1.5-1-1.9.1-.6 0-1.2-.1-1.8-1.4-.5-3-.1-4 .9.7.7 1.1 1.5 1.3 2.5-.5.1-1 .3-1.1.8-.6 2.3-1.8 4.3-2.7 6.4.6.5 1.2 1 1.8 1.6-.1.7 0 1.3 0 2-1.1-.2-1.9-.4-2.8-.4zm-5.9-2.8c.6.2 1.2.3 1.8.6-.3.3-.8.3-1 .7.5.6 1.1 1 1.8 1.3.8-1.1 1.9-2.1 3-2.9-.1-1.1 0-2.2.1-3.3-.3-.1-.5-.3-.7-.5-1.4.9-1.9 2.1-2.5 3.6-.2 0-.4 0-.6.1-.5-.9-1.2-1.7-2.1-2.2 0 .9 0 1.8.2 2.6zm-2.4-23.5c-1.3.4-2.6 1-3.6 2 1.1.7 2.3 1.2 3.7 1.3 1.5-2.6 2.4-4.9 2-8-1.1.9-2.2 1.8-3.3 2.8.7.4 1.2 1.2 1.2 1.9zm-5.7-13.7c.8-1 1.9-1.8 3.1-2.2-2.5-.7-4.5-1-7 .1 1.2.8 2.5 1.6 3.9 2.1zm3.5 4.7c.1 1.4 1 1.6 2.3 1.5-.5-1.7-.2-3.4-.7-5.1-1 .9-1.6 2.2-1.6 3.6zm-3.3-4c-2.7.9-2.7 2.4-1.3 4.6 1-1.4 1-2.9 1.3-4.6zm-4.1 51.4c-.2-1.6-1.4-1.6 0 0zm38.9-85.6c.9.7 2.1 1.1 3.2 1.3-.9-.9-1.6-2-2.2-3.1-.6.4-1 1-1 1.8zm-3.2-4.5c-.1-.7-.1-1.4-.2-2.1-.6-.4-1.4-.2-1.8-.9s-.3-1.7-.8-2.4c-.9 1.6-1.3 3.5-1.2 5.3 1.3.3 2.7.3 4 .1zm-2.5 18.6c.5.9 1.8.3 2.5.7.4-1.4.6-2.8.5-4.2-2.4 0-4.4.9-3 3.5zm1.2-17.3c-.5.4-.9.9-1.3 1.3.4.7.8 1.3 1.2 1.9.5-1 .5-2.2.1-3.2zm-10.9 12.4c-.6 1-1.1 2-1.4 3.1 2.1-.1 2.4-1.3 1.4-3.1zm1.8-6c.4-1.9.6-3.7 3-3.4-.3.4-.5.8-.6 1.3 1.4.3 2.8-.4 3.4-1.7-.7-.2-1.5-.5-1.5-1.4s.9-1.3 1.4-2c-.6-.5-1.4-.8-2.1-1.2-.4.2-.8.6-1 1-4 .5-4.6 2.7-4.4 6.4.5.4 1.1.7 1.8 1zm13-13.3-1.8 1.3c.3.7.7 1.4 1.2 2 .6-1 .8-2.1.6-3.3zm9.8-3.7c.4-.9.7-1.7.9-2.6-1-.8-2.3-1.3-3.6-1.3-.5-1.2-.8-2.4-1.3-3.6-.8 2.3-.4 4.7-.9 7 1.8.4 3.3-.3 4.9.5zm-4 9.1c1.4-1 2.5-2.4 3-4l-1.1-1.2c-1.7 1.6-2.4 2.9-1.9 5.2zm-2.8-2.1c-.8.7-1.8 1.2-2.6 1.9.8.7 1.7 1.2 2.7 1.6.3-1.2.3-2.4-.1-3.5zm8.5-17.8c-1.4-1.5-2.2-1.1-3 .7 1.3.9 2 .5 3-.7zm-28.1 51.2c.7-.9 1.4-1.8 2-2.7-1.1-1-2.1-2.2-2.9-3.4-.6 2-.3 4.3.9 6.1zm-21.9 136.8c1.5.5 2.7 1.4 3.7 2.6.7-.3 1.1-.8 1.8-.9 0-.5 0-1.1 0-1.6-.3.4-.6.7-.9 1-.3-.1-1-.2-1.1-.6-.1-1.2.4-2.2.6-3.3-1.2-.4-2.3-1-3.2-1.8-.8.8-1.4 1.8-1.7 2.8-2.3 2.3-3.9 4.5-.2 6.1.1-1-.5-1.6-.4-2.6.2-.8.7-1.4 1.4-1.7zm-9.3-19c1.1-1.2 1.5-3 .9-4.6-2.5 1.1-2.9 2.4-1.2 4.6 0 1 .2.8.3 0zm-2.2-40.3c.1-.8.1-1.6.2-2.3-.7-.4-1.4-.7-2.1-.8-.1 1.3.7 2.5 1.9 3.1zm4.3 19.5c0 .6 0 1.2.1 1.8 1.7.5 2.1 1.5 2.6 3.1-1.5-.7-3.1-1.2-4.7-1.6.9 1.2 1.1 2.9.4 4.3.7.8 1.7 1.2 2.8 1.3 1.4-1.3 3.1-2.3 4.9-3-1.3-2.3-2.3-4.7-3-7.2-2.6-1.1-4.3-1.9-5-4.8-.5 0-.9 0-1.4-.1-.6 2.1-1.4 4.2-2.4 6.3 1.9-.3 3.8-.4 5.7-.1zm10.7 32.3c-.9-1.2-1.9-.4-3.2-.8s-1.9-1.8-2.7-2.7c-2.8 1.4-2.3 3.8-4.1 6.2-.7.8-3.4.9-4-.4-.3.6-.5 1.3-.5 2 2.3.8 4.7 1 7 .5.3-1.1.6-2.3 1.1-3.3 2.2-.9 4.3-1.3 6.4-1.5zm15.8-170.6c-.8.1-1.5.6-1.9 1.3.9.8 2.2 1.3 3.5 1.2-.5-1-1-1.8-1.6-2.5zm246.6 44.3c-.6.4-1.1.9-1.7 1.2.4 1.3 1 1.9 2.4 2 .8-1.4.3-2.2-.7-3.2zm-3.6-3.6c-.4 1.4-.6 2.9-.6 4.3.4.1.9.1 1.4.1.5-1 1.5-1.7 2.6-1.8.2-2.4-1.3-2.6-3.4-2.6zm-256.7 141.5c-1.2.5-2.5.5-3.6 0 .7.6 1.4 1.3 2 2 .3.4.6.7.9 1.1.2.3.3.5.5.8s.3.6.4.9h.1c-.2-1.5-.3-3.1-.3-4.8z" fill="#e27bf5"/><g fill="#22183b"><path d="m166.3 304.5c-3.2-.1-6.4-.2-9.6-.4s-6.4-.5-9.6-.9c-6.5-.7-12.9-1.9-19.2-3.5-6.4-1.6-12.6-3.8-18.5-6.6s-11.6-6-17.1-9.7c-2.7-1.8-5.4-3.7-8-5.6-2.6-2-5.1-3.9-7.6-5.9-5.3-3.9-10.2-8.3-14.8-13-1.2-1.2-2.2-2.5-3.3-3.8-1.1-1.4-2.1-2.8-3-4.3-1.8-2.9-3.2-5.7-4.8-8.3-.7-1.2-1.6-2.4-2.5-3.6s-1.9-2.4-2.9-3.6c-2.3-2.6-4.2-5.5-5.9-8.6-3.1-6.3-4.6-12.8-6.5-18.6-.2-.7-.5-1.5-.7-2.2l-.3-.9-.4-1.3c-.5-1.6-1-3.1-1.4-4.7s-.9-3-1.3-4.5c-.5-1.5-1-2.9-1.5-4.4-1.1-2.9-2.2-5.9-3.3-9.1s-2-6.4-2.6-9.7c-.2-.8-.3-1.6-.5-2.5s-.3-1.7-.4-2.5c-.2-1.7-.3-3.3-.4-5-.2-3.3-.2-6.5-.4-9.6-.1-1.6-.1-3.1-.3-4.6-.1-.8-.1-1.4-.2-2.1s-.2-1.5-.4-2.2c-.7-3.2-1.3-6.5-1.7-9.8-.1-.9-.1-1.7-.1-2.5s-.1-1.6-.1-2.4c0-1.6 0-3.2 0-4.9 0-3.2.1-6.5.3-9.7.3-6.4.9-12.8 1.6-19.2.3-3.2.7-6.4 1.1-9.5l1.2-9.5c.1-1.1 1-1.9 2.1-1.8s1.9 1 1.8 2.1c-.7 12.7-1.8 25.4-1.8 38 0 3.2 0 6.3.1 9.4 0 1.6.1 3.1.2 4.7 0 .8.1 1.6.1 2.3.1.8.1 1.6.2 2.3.3 2.8 1.1 5.8 1.8 9 .2.8.3 1.6.5 2.5.1.8.3 1.8.4 2.6.2 1.7.3 3.3.4 4.9.2 3.2.3 6.4.6 9.5.1 1.5.3 3.1.5 4.5.1.7.2 1.5.4 2.2s.3 1.5.5 2.2c.7 3 1.5 5.9 2.5 8.7 1 2.9 2.2 5.8 3.4 8.9.6 1.5 1.1 3.1 1.6 4.6.5 1.6 1 3.2 1.4 4.7s.9 3 1.4 4.5l.3 1 .4 1.2c.3.8.5 1.6.8 2.4 2 6.3 3.5 12.3 6.1 17.4 1.4 2.6 3 5 4.9 7.2 1 1.2 2 2.5 3 3.8 1 1.4 2 2.8 2.9 4.3 1.7 2.9 3.2 5.7 4.8 8.3.7 1.2 1.5 2.4 2.4 3.6.9 1.1 1.9 2.3 2.9 3.4 4.2 4.5 8.8 8.7 13.7 12.4 5 4 9.8 7.9 15 11.5 5.1 3.6 10.4 6.8 15.9 9.6s11.3 5 17.2 6.8c6 1.8 12.1 3.2 18.3 4.2s12.5 1.7 18.8 2.2c1.1.1 1.9 1.1 1.9 2.2-.4 1.1-1.3 2-2.3 1.9z"/><path d="m223.4 444.4c-4.1-1-8.2-2.1-12.3-3.4-1-.3-2.1-.7-3.2-1.1-1-.4-2-.9-3-1.4-2-1-3.8-2-5.7-3s-3.6-2.1-5.4-3-3.6-1.8-5.5-2.5c-3.8-1.6-7.7-2.9-11.7-4.7-2-.9-4-1.9-5.9-3-1-.6-1.9-1.2-2.8-1.8l-2.6-1.8c-3.5-2.4-6.9-5.1-10.2-7.8-1.7-1.4-3.3-2.8-4.8-4.3-.8-.7-1.6-1.5-2.3-2.2l-2.2-2.2c-1.4-1.3-2.9-2.6-4.5-3.9-1.8-1.4-3.4-2.9-5-4.6-.8-.9-1.5-1.8-2.3-2.7-.7-1-1.4-1.9-1.9-2.9-1.2-1.9-2.2-3.7-3.3-5.5-1-1.8-2.1-3.6-3.1-5.1-1.2-1.5-2.4-3-3.8-4.4-1.6-1.6-3.1-3.3-4.4-5.1-1.4-1.9-2.6-4.1-3.5-6.3-.9-2.1-1.5-4.1-2.3-5.8-.4-.8-.8-1.7-1.2-2.5l-1.5-2.7c-4.2-7.2-8.7-14.4-12.4-22.3-1.8-4-3.3-8.1-4.5-12.4-1.2-4.2-2.1-8.3-3.1-12.4l-1.4-6.1c-.5-2-1-4.1-1.4-6.2-.9-4.2-1.7-8.4-2.3-12.6-1.3-8.5-1.9-17.1-1.9-25.6 0-2.1 0-4.3.1-6.4l.1-1.6c0-.5 0-1 .1-1.7.1-1.2.3-2.4.5-3.5.4-2.2.9-4.3 1.3-6.3.2-1 .4-2 .6-3 .1-.5.2-.9.2-1.4l.2-1.5c.5-4.1 1-8.3 1.7-12.6.7-4.4 1.8-8.7 3.2-12.8 2.9-8.4 7.3-15.9 11-23.2.8-1.8 1.4-3.6 2-5.4.4-1 .7-2.1 1.2-3.2.2-.6.5-1.1.8-1.7l.5-.9.4-.7c2.2-3.7 4.6-7.3 7-10.8s5.1-6.9 7.8-10.2l2.1-2.5 1-1.2c.3-.3.5-.6.8-1 .5-.7 1-1.5 1.5-2.3s1.1-1.9 1.8-2.9c.7-1.1 1.6-2.1 2.5-3 .9-.8 1.7-1.6 2.6-2.3 1.7-1.4 3.5-2.7 5.2-4s3.4-2.5 5-3.7c.8-.6 1.5-1.2 2.3-1.8l2.3-2c3.2-2.9 6.6-5.7 10.1-8.2 1.9-1.3 3.8-2.5 5.8-3.5s4-1.9 6-2.7 3.9-1.6 5.8-2.4c.9-.4 1.8-.8 2.7-1.2.8-.4 1.6-.8 2.4-1.4 1.7-1 3.5-2.2 5.4-3.3 1-.6 2.1-1.2 3.2-1.7l.4-.2.4-.2.7-.3 1.5-.6c8-3.2 16.3-5.7 24.7-7.6 4.3-.8 8.6-1.4 13-1.6 4.3-.3 8.5-.5 12.6-.7 4.2-.2 8.5-.5 12.9-.4 8.8.4 17.5 2 25.8 4.9 2.1.7 4.1 1.6 6.1 2.4l2.9 1.3 1.4.6 1.4.6c1.9.8 3.9 1.5 6 2.4.5.2 1 .5 1.6.8.3.1.6.3.9.5l.7.4c.9.5 1.8 1 2.7 1.4 1.8.9 3.8 1.9 5.7 3 2 1.2 3.9 2.5 5.7 4 3.4 2.9 6.4 6.2 9.1 9.8 2.7 3.4 5.1 6.9 7.5 10.5 1.3 1.9 2.4 3.8 3.4 5.8s1.8 4.1 2.6 6.3c1.4 4.1 2.5 8.3 3.4 12.6s1.6 8.6 1.8 13l.2 6.3c.1 2.1.1 4.3.1 6.4 0 4.4-.4 8.8-1.2 13.2l-.4 1.7c-.2.6-.3 1.2-.5 1.8-.4 1.1-.8 2.2-1.3 3.2-.9 2-1.9 3.9-2.7 5.7-.2.4-.4.9-.6 1.3l-.6 1.5c-.5 1.2-1.1 2.3-1.8 3.4-.7 1-1.3 1.7-1.7 2.5-.5.8-.9 1.6-1.2 2.4-1.7 3.7-3.1 7.7-5 11.6-.9 2-2 4-3.1 5.9-1.2 1.9-2.4 3.6-3.6 5.4s-2.4 3.5-3.7 5.2-2.6 3.5-4.1 5.2c-2.9 3.2-6 6.2-9.3 9l-2.3 2.1c-.7.7-1.6 1.4-2.2 2-1.3 1.4-2.6 3-4 4.7-.7.8-1.4 1.6-2.3 2.5-1 1-1.6 1.4-2.3 2.1-1.3 1.3-2.5 2.9-4 4.7-.8.9-1.6 1.7-2.5 2.5-.5.4-.9.7-1.4 1.1s-1 .7-1.6 1c-2 .9-4 1.8-6.1 2.5-.9.3-1.7.7-2.5 1.2-.9.5-1.9 1.1-2.8 1.6-1.9 1-3.7 2-5.6 3-3.8 1.9-7.6 3.7-11.5 5.4-1 .4-2.1 0-2.6-1-.4-1 0-2.1 1-2.6 3.7-1.8 7.4-3.7 11.1-5.6 1.8-1 3.6-2 5.4-3.1l2.7-1.6c1-.6 2-1.1 3.1-1.6 1.9-.7 3.7-1.5 5.5-2.5.4-.2.7-.5 1.1-.7.4-.3.7-.6 1.1-.9.7-.6 1.3-1.3 1.9-2 1.2-1.4 2.4-3.3 4.1-5 .8-.8 1.8-1.7 2.3-2.2.6-.6 1.3-1.4 1.9-2.2 1.3-1.6 2.5-3.2 4.1-5 .9-.9 1.6-1.6 2.4-2.3l2.3-2.2c3-2.7 5.9-5.6 8.6-8.7 1.3-1.5 2.5-3.1 3.7-4.8s2.4-3.4 3.5-5.1 2.4-3.5 3.3-5.1c1-1.7 1.9-3.5 2.7-5.3 1.6-3.7 3-7.6 4.7-11.6.4-1.1 1-2.2 1.6-3.2.6-1.1 1.3-2 1.8-2.7s.8-1.4 1.1-2.2l.5-1.5c.2-.5.4-1.1.7-1.6.9-2 1.9-3.9 2.6-5.7.4-.9.7-1.7 1-2.6.1-.4.2-.8.3-1.2l.3-1.4c.7-3.9 1-7.9.9-11.8 0-2-.1-4.1-.2-6.1l-.3-6.2c-.3-4-.9-8-1.8-11.9-.8-4-1.9-7.9-3.2-11.7-1.2-3.7-3-7.2-5.2-10.4-2.3-3.4-4.7-6.7-7.2-9.9-2.4-3.1-5.1-6-8-8.6-1.5-1.2-3-2.3-4.6-3.2-1.7-1-3.5-1.9-5.4-2.8-1-.5-1.9-1-2.9-1.5l-.7-.4c-.2-.1-.3-.2-.5-.3-.4-.2-.8-.4-1.2-.6-1.8-.8-3.7-1.5-5.7-2.3l-1.5-.6-1.5-.7-2.8-1.2c-1.9-.8-3.7-1.6-5.6-2.2-7.5-2.6-15.4-4.1-23.4-4.5-4-.1-8.1.2-12.3.4s-8.4.4-12.5.7c-4 .3-8 .8-12 1.5-8 1.8-15.8 4.2-23.4 7.2l-1.4.6-.7.3-.4.1-.3.1c-.8.4-1.6.8-2.4 1.3-1.7 1-3.4 2.1-5.3 3.3-.9.6-2 1.2-3.1 1.7-1 .5-2 1-3 1.4-2 .9-4 1.7-5.9 2.5s-3.7 1.6-5.4 2.5-3.3 1.9-4.9 3c-3.3 2.4-6.4 5-9.4 7.7l-2.4 2.1c-.8.7-1.7 1.4-2.6 2.1-1.7 1.3-3.5 2.5-5.1 3.8s-3.3 2.4-4.8 3.7c-.7.6-1.4 1.2-2.1 1.9-.6.6-1.1 1.2-1.5 1.9-.5.7-.9 1.5-1.5 2.4s-1.2 2-1.9 3c-.4.5-.8 1-1.2 1.5l-1 1.2-2 2.4c-2.6 3.2-5.1 6.4-7.5 9.8-2.4 3.3-4.6 6.8-6.7 10.3-1.9 2.8-2.5 6.7-4.6 11.3-3.9 7.7-8.1 14.7-10.6 22.2-1.3 3.8-2.3 7.6-2.9 11.6-.7 4-1.1 8.1-1.6 12.3l-.2 1.6c-.1.6-.2 1.2-.3 1.7-.2 1.1-.4 2.2-.7 3.2-.5 2.1-.9 4.1-1.3 6-.2 1-.3 1.9-.4 2.8 0 .4-.1.9-.1 1.4l-.1 1.5c-.1 2-.1 4.1-.1 6.1 0 8.2.6 16.4 1.8 24.5.6 4.1 1.3 8.1 2.2 12.1.4 2 .9 4 1.4 6l1.4 6.2c1.8 8.2 3.7 16.1 7 23.3 3.3 7.3 7.8 14.4 12 21.7l1.6 2.8c.6 1 1.1 2.1 1.6 3.2.9 2.1 1.6 4.1 2.3 5.9.7 1.7 1.5 3.2 2.6 4.7 1.2 1.5 2.5 3 3.9 4.4 1.6 1.6 3.1 3.3 4.4 5.2 1.4 2 2.4 3.8 3.5 5.6s2.1 3.6 3.2 5.3c.5.8 1.1 1.7 1.6 2.3.6.7 1.1 1.5 1.8 2.1 1.3 1.4 2.7 2.7 4.2 4 1.6 1.3 3.3 2.8 4.9 4.4.8.8 1.5 1.5 2.2 2.3.7.7 1.4 1.5 2.2 2.2l4.5 4.2c3 2.7 6.2 5.3 9.5 7.7l2.5 1.8c.9.6 1.6 1.1 2.4 1.7 1.7 1 3.4 2 5.2 2.8 3.6 1.7 7.6 3.2 11.5 5 2 .9 3.9 1.9 5.8 3s3.7 2.2 5.4 3.3c3.3 2.2 6.9 4.1 10.6 5.6 3.9 1.4 7.8 2.8 11.8 4 1.1.3 1.7 1.4 1.4 2.5-.8.3-1.8.9-2.9.7z"/><path d="m590 366.3c-2.2 2.1-4.3 4.3-6.3 6.6-1.1 1.2-2.3 2.4-3.6 3.4-.6.5-1.3 1.1-2 1.6-.8.5-1.7 1-2.6 1.4-3.2 1.2-6.2 1.9-9 2.9-.6.2-1.3.5-1.9.7-.2.1-.4.2-.7.4l-.9.6c-1.2.9-2.3 1.8-3.3 2.8-2.3 2.3-4.8 4.4-7.5 6.3-.4.2-.7.5-1.1.7l-1 .6c-.6.4-1.3.8-1.9 1.2-1.2.8-2.4 1.7-3.8 2.6-1.4 1-2.8 1.9-4.2 2.7-.7.4-1.4.8-2.3 1.2-.8.4-1.5.7-2.3 1-2.9 1.3-5.9 2.4-8.5 3.6-.5.2-1 .5-1.4.8-.5.4-.9.8-1.3 1.2-1.2 1.4-2.6 2.7-4.2 3.7-.2.1-.5.3-.7.4-.3.1-.5.3-.7.3l-1.1.5c-.8.3-1.5.6-2.3.9-1.5.6-3 1.1-4.6 1.6-6.1 2-12.1 3.6-17.7 5.7l-4.3 1.7-4.4 1.7c-2.9 1.1-5.9 2.2-8.8 3.3l-8.8 3.1c-2.9 1-5.7 2.1-8.7 3.3s-6 2.2-9.1 3.1-6.2 1.7-9.3 2.4l-18.3 4.2c-3.2.7-6.4 1.2-9.6 1.5-3.2.4-6.2.6-9.1 1.1-.7.1-1.5.2-2.2.4-.6.1-1.2.3-2 .5-1.4.4-2.8.9-4.3 1.3s-3 1-4.6 1.4c-.8.2-1.6.4-2.5.6-1 .2-1.7.3-2.6.4-6.6.8-12.9.7-19.1.8-3 0-6 .2-9 .6-2.9.4-6 1.1-9.1 1.6-1.6.3-3.2.5-4.8.7-.8.1-1.6.2-2.5.2s-1.7.1-2.5.1c-3.1 0-6.3 0-9.5 0-3.1-.1-6.3-.2-9.4-.4s-6.3-.5-9.4-.8c-1.1-.1-1.8-1.1-1.7-2.2.1-1 1-1.7 2-1.7 3.1.1 6.2.2 9.3.2s6.2 0 9.3-.1 6.2-.2 9.3-.4c.8 0 1.5-.1 2.2-.2s1.4-.2 2.2-.3c1.5-.2 2.9-.6 4.4-.9 3-.7 6-1.4 9.3-2 3.2-.5 6.4-.9 9.7-1 6.4-.3 12.5-.3 18.3-1.3.7-.1 1.5-.2 2-.4.6-.2 1.3-.3 2-.6 1.4-.4 2.8-.9 4.3-1.4s3-1 4.6-1.5c.8-.2 1.7-.5 2.6-.6.8-.2 1.6-.3 2.4-.4 3.2-.6 6.4-.9 9.4-1.3s5.9-.9 8.8-1.5l4.5-1.1 4.6-1.1 9.1-2.1c3-.7 6-1.5 8.8-2.4s5.7-1.9 8.6-3 5.8-2.2 8.9-3.3l8.8-3.1c2.9-1 5.8-2.1 8.7-3.2l8.8-3.3c6.1-2.2 12.2-3.7 18-5.5 1.4-.5 2.9-.9 4.3-1.5.7-.3 1.4-.5 2.1-.8l1-.4c.2-.1.3-.1.4-.2.1 0 .2-.1.3-.2 1-.7 2-1.5 2.8-2.4.7-.7 1.4-1.3 2.2-1.9s1.7-1.1 2.7-1.5c3.1-1.3 6-2.3 8.8-3.5.7-.3 1.4-.6 2-.9s1.3-.6 1.9-1c1.3-.7 2.5-1.4 3.8-2.2s2.6-1.7 4-2.6c.7-.4 1.4-.8 2.1-1.2l1-.5c.3-.2.6-.4.9-.5 2.5-1.6 4.8-3.5 7-5.5 1.3-1.1 2.6-2.1 4-3l1.1-.7c.5-.3.9-.5 1.4-.7.8-.3 1.7-.6 2.5-.9 3.2-.9 6.2-1.5 8.9-2.4.5-.2 1.1-.4 1.6-.7.6-.4 1.2-.8 1.8-1.2 1.2-.9 2.3-1.9 3.3-2.9 2.2-2.3 4.6-4.4 7.1-6.4.9-.7 2.1-.5 2.8.4.8.9.6 2.1-.2 2.8z"/><circle cx="267.5" cy="449.9" r="14.6"/></g><circle cx="209.4" cy="295.9" fill="#ffce46" r="17.3"/><path d="m7.9 7.9h38.4v38.4h-38.4z" fill="#7c5ef1" transform="matrix(.7537 -.6572 .6572 .7537 -11.1419 24.4976)"/></svg>